<svg xmlns="http://www.w3.org/2000/svg" width="50.191" height="50.19" viewBox="0 0 50.191 50.19">
  <g id="Groupe_12369" data-name="Groupe 12369" transform="translate(-170.533 -361.828)">
    <g id="Groupe_12368" data-name="Groupe 12368" transform="translate(170.533 361.828)">
      <g id="Ellipse_347" data-name="Ellipse 347" transform="translate(0)" fill="#141473" stroke="#141473" stroke-width="1.5">
        <ellipse cx="25.096" cy="25.095" rx="25.096" ry="25.095" stroke="none"/>
        <ellipse cx="25.096" cy="25.095" rx="24.346" ry="24.345" fill="none"/>
      </g>
    </g>
    <path id="Icon_ionic-ios-calculator" data-name="Icon ionic-ios-calculator" d="M26.362,3.375H9.869A2.211,2.211,0,0,0,7.594,5.521V29.129a2.211,2.211,0,0,0,2.275,2.146H26.362a2.211,2.211,0,0,0,2.275-2.146V5.521A2.211,2.211,0,0,0,26.362,3.375Zm-.853,18.243v5.365a1.656,1.656,0,0,1-1.706,1.61h0a1.656,1.656,0,0,1-1.706-1.61V21.618a1.656,1.656,0,0,1,1.706-1.61h0A1.656,1.656,0,0,1,25.509,21.618Zm0-5.365h0a1.656,1.656,0,0,1-1.706,1.61h0a1.656,1.656,0,0,1-1.706-1.61h0a1.656,1.656,0,0,1,1.706-1.61h0A1.656,1.656,0,0,1,25.509,16.252ZM19.822,26.983h0a1.656,1.656,0,0,1-1.706,1.61h0a1.656,1.656,0,0,1-1.706-1.61h0a1.656,1.656,0,0,1,1.706-1.61h0A1.656,1.656,0,0,1,19.822,26.983Zm0-5.365h0a1.656,1.656,0,0,1-1.706,1.61h0a1.656,1.656,0,0,1-1.706-1.61h0a1.656,1.656,0,0,1,1.706-1.61h0A1.656,1.656,0,0,1,19.822,21.618Zm0-5.365h0a1.656,1.656,0,0,1-1.706,1.61h0a1.656,1.656,0,0,1-1.706-1.61h0a1.656,1.656,0,0,1,1.706-1.61h0A1.656,1.656,0,0,1,19.822,16.252ZM14.134,26.983h0a1.656,1.656,0,0,1-1.706,1.61h0a1.656,1.656,0,0,1-1.706-1.61h0a1.656,1.656,0,0,1,1.706-1.61h0A1.656,1.656,0,0,1,14.134,26.983Zm0-5.365h0a1.656,1.656,0,0,1-1.706,1.61h0a1.656,1.656,0,0,1-1.706-1.61h0a1.656,1.656,0,0,1,1.706-1.61h0A1.656,1.656,0,0,1,14.134,21.618Zm0-5.365h0a1.656,1.656,0,0,1-1.706,1.61h0a1.656,1.656,0,0,1-1.706-1.61h0a1.656,1.656,0,0,1,1.706-1.61h0A1.656,1.656,0,0,1,14.134,16.252Zm-3.412-5.365V7.667a1.11,1.11,0,0,1,1.137-1.073H24.372a1.11,1.11,0,0,1,1.137,1.073v3.219a1.11,1.11,0,0,1-1.137,1.073H11.859A1.11,1.11,0,0,1,10.722,10.887Z" transform="translate(177.511 369.599)" fill="#fff"/>
  </g>
</svg>
