<svg xmlns="http://www.w3.org/2000/svg" width="22" height="22" viewBox="0 0 22 22">
  <g id="Groupe_12467" data-name="Groupe 12467" transform="translate(-328 -435)">
    <g id="Groupe_941" data-name="Groupe 941" transform="translate(328 435)">
      <g id="Tracé_1437" data-name="Tracé 1437" transform="translate(0)" fill="#3500e6">
        <path d="M 11 21.5 C 5.210279941558838 21.5 0.5 16.78972053527832 0.5 11 C 0.5 5.210279941558838 5.210279941558838 0.5 11 0.5 C 16.78972053527832 0.5 21.5 5.210279941558838 21.5 11 C 21.5 16.78972053527832 16.78972053527832 21.5 11 21.5 Z" stroke="none"/>
        <path d="M 11 1 C 5.485979080200195 1 1 5.485979080200195 1 11 C 1 16.51401901245117 5.485979080200195 21 11 21 C 16.51401901245117 21 21 16.51401901245117 21 11 C 21 5.485979080200195 16.51401901245117 1 11 1 M 11 0 C 17.07513046264648 0 22 4.924869537353516 22 11 C 22 17.07513046264648 17.07513046264648 22 11 22 C 4.924869537353516 22 0 17.07513046264648 0 11 C 0 4.924869537353516 4.924869537353516 0 11 0 Z" stroke="none" fill="#3500e6"/>
      </g>
    </g>
    <path id="Icon_ionic-ios-add" data-name="Icon ionic-ios-add" d="M22,15.049H16.78V9.83a.865.865,0,1,0-1.731,0v5.219H9.83a.865.865,0,0,0,0,1.731h5.219V22a.865.865,0,1,0,1.731,0V16.78H22a.865.865,0,1,0,0-1.731Z" transform="translate(323.035 430.035)" fill="#fff"/>
  </g>
</svg>
