<svg id="Groupe_12371" data-name="Groupe 12371" xmlns="http://www.w3.org/2000/svg" width="50.278" height="50.278" viewBox="0 0 50.278 50.278">
  <g id="Tracé_14112" data-name="Tracé 14112" fill="#141473">
    <path d="M 25.138916015625 49.52783584594727 C 21.84610557556152 49.52783584594727 18.65218544006348 48.88310623168945 15.64587593078613 47.61154556274414 C 12.74175643920898 46.38319778442383 10.13342571258545 44.62456512451172 7.893355846405029 42.38448715209961 C 5.653275966644287 40.14440536499023 3.894635915756226 37.53607559204102 2.666296005249023 34.63195419311523 C 1.394736051559448 31.62564659118652 0.7500060200691223 28.43172645568848 0.7500060200691223 25.138916015625 C 0.7500060200691223 21.84610557556152 1.394736051559448 18.65218544006348 2.666296005249023 15.64587593078613 C 3.894635915756226 12.74175643920898 5.653275966644287 10.13342571258545 7.893355846405029 7.893355846405029 C 10.13342571258545 5.653275966644287 12.74175643920898 3.894635915756226 15.64587593078613 2.666296005249023 C 18.65218544006348 1.394736051559448 21.84610557556152 0.7500060200691223 25.138916015625 0.7500060200691223 C 28.43172645568848 0.7500060200691223 31.62564659118652 1.394736051559448 34.63195419311523 2.666296005249023 C 37.53607559204102 3.894635915756226 40.14440536499023 5.653275966644287 42.38448715209961 7.893355846405029 C 44.62456512451172 10.13342571258545 46.38319778442383 12.74175643920898 47.61154556274414 15.64587593078613 C 48.88310623168945 18.65218544006348 49.52783584594727 21.84610557556152 49.52783584594727 25.138916015625 C 49.52783584594727 28.43172645568848 48.88310623168945 31.62564659118652 47.61154556274414 34.63195419311523 C 46.38319778442383 37.53607559204102 44.62456512451172 40.14440536499023 42.38448715209961 42.38448715209961 C 40.14440536499023 44.62456512451172 37.53607559204102 46.38319778442383 34.63195419311523 47.61154556274414 C 31.62564659118652 48.88310623168945 28.43172645568848 49.52783584594727 25.138916015625 49.52783584594727 Z" stroke="none"/>
    <path d="M 25.138916015625 1.499996185302734 C 21.94702529907227 1.499996185302734 18.85139656066895 2.124797821044922 15.93804550170898 3.357044219970703 C 13.12331771850586 4.547576904296875 10.59511566162109 6.252235412597656 8.423675537109375 8.423675537109375 C 6.252235412597656 10.59511566162109 4.547576904296875 13.12331771850586 3.357044219970703 15.93804550170898 C 2.124797821044922 18.85139656066895 1.499996185302734 21.94702529907227 1.499996185302734 25.138916015625 C 1.499996185302734 28.33080673217773 2.124797821044922 31.42642593383789 3.357044219970703 34.33978652954102 C 4.547576904296875 37.15450668334961 6.252235412597656 39.68270492553711 8.423675537109375 41.85414505004883 C 10.59511566162109 44.02558517456055 13.12331771850586 45.73024749755859 15.93804550170898 46.9207763671875 C 18.85140609741211 48.15302658081055 21.94702529907227 48.77782440185547 25.138916015625 48.77782440185547 C 28.33080673217773 48.77782440185547 31.42642593383789 48.15302658081055 34.33978652954102 46.9207763671875 C 37.15450668334961 45.73024749755859 39.68270492553711 44.02558517456055 41.85414505004883 41.85414505004883 C 44.02558517456055 39.68270492553711 45.73024749755859 37.15450668334961 46.9207763671875 34.33978652954102 C 48.15302658081055 31.42642593383789 48.77782440185547 28.33080673217773 48.77782440185547 25.138916015625 C 48.77782440185547 21.94702529907227 48.15302658081055 18.85140609741211 46.9207763671875 15.93804550170898 C 45.73024749755859 13.12331771850586 44.02558517456055 10.59511566162109 41.85414505004883 8.423675537109375 C 39.68270492553711 6.252235412597656 37.15450668334961 4.547576904296875 34.33978652954102 3.357044219970703 C 31.42642593383789 2.124797821044922 28.33080673217773 1.499996185302734 25.138916015625 1.499996185302734 M 25.138916015625 -3.814697265625e-06 C 39.02274703979492 -3.814697265625e-06 50.27782440185547 11.25507736206055 50.27782440185547 25.138916015625 C 50.27782440185547 39.02274703979492 39.02274703979492 50.27782440185547 25.138916015625 50.27782440185547 C 11.25507736206055 50.27782440185547 -3.814697265625e-06 39.02274703979492 -3.814697265625e-06 25.138916015625 C -3.814697265625e-06 11.25507736206055 11.25507736206055 -3.814697265625e-06 25.138916015625 -3.814697265625e-06 Z" stroke="none" fill="#141473"/>
  </g>
  <path id="Tracé_14110" data-name="Tracé 14110" d="M801.736,758.763l8.1-3.189,2.2,5.592-8.1,3.189Zm-1-1.425,8.861-3.49c-.013-2.205.092-2.5-.384-2.823-.509-.345-.135-.343-9.606,3.388a.847.847,0,0,0-.312,1.361Zm3.844,11.6a.847.847,0,0,0,.784.087l8.821-3.474a.847.847,0,0,0,.312-1.361l-1.473-1.6-8.829,3.478C804.205,768.323,804.1,768.62,804.577,768.944Zm-2.562-4.847-1.282-3.255a.846.846,0,0,0-1.079-.485l-11.319,4.155a2.855,2.855,0,0,0,.876,5.591c.931,0,.359.133,12.346-4.916A.847.847,0,0,0,802.015,764.1Zm15.433,9.692a.846.846,0,0,0-.8-.564H801.913a.847.847,0,0,0-.8.564c-1.626,4.6-1.746,4.583-1.408,5.06.361.511-.747.358,18.459.358a.847.847,0,0,0,.8-1.129Zm-.87-8.886,2.857-.912-.515-1.613-2.857.912Zm-1.4,2.727,2.534,1.282.764-1.511-2.534-1.282Zm2.009-7.919-1.463-.852-1.348,2.314,1.463.852Z" transform="translate(-779.806 -741.091)" fill="#fff"/>
</svg>
