<svg xmlns="http://www.w3.org/2000/svg" width="17.86" height="20.412" viewBox="0 0 17.86 20.412">
  <path id="Icon_awesome-calendar-check" data-name="Icon awesome-calendar-check" d="M17.382,6.379H.478A.478.478,0,0,1,0,5.9V4.465A1.914,1.914,0,0,1,1.914,2.551H3.827V.478A.478.478,0,0,1,4.306,0H5.9a.478.478,0,0,1,.478.478V2.551h5.1V.478A.478.478,0,0,1,11.96,0h1.595a.478.478,0,0,1,.478.478V2.551h1.914A1.914,1.914,0,0,1,17.86,4.465V5.9A.478.478,0,0,1,17.382,6.379ZM.478,7.654h16.9a.478.478,0,0,1,.478.478V18.5a1.914,1.914,0,0,1-1.914,1.914H1.914A1.914,1.914,0,0,1,0,18.5V8.133A.478.478,0,0,1,.478,7.654ZM13.766,11.48l-1.123-1.132a.478.478,0,0,0-.677,0L7.739,14.538,5.906,12.69a.478.478,0,0,0-.677,0L4.1,13.811a.478.478,0,0,0,0,.677l3.293,3.32a.478.478,0,0,0,.677,0l5.7-5.653a.478.478,0,0,0,0-.677Z" fill="#c1c7d0"/>
</svg>
