<svg xmlns="http://www.w3.org/2000/svg" width="14.49" height="19.066" viewBox="0 0 14.49 19.066">
  <g id="Icon_ionic-ios-document" data-name="Icon ionic-ios-document" transform="translate(-7.313 -3.938)">
    <path id="Tracé_14095" data-name="Tracé 14095" d="M21.507,8.659h4.337a.236.236,0,0,0,.238-.238h0a1.411,1.411,0,0,0-.51-1.092L21.936,4.3a1.531,1.531,0,0,0-.982-.353h0A.352.352,0,0,0,20.6,4.3V7.753A.905.905,0,0,0,21.507,8.659Z" transform="translate(-4.28 -0.002)" fill="#c1c7d0"/>
    <path id="Tracé_14096" data-name="Tracé 14096" d="M15.082,7.751V3.938H8.838A1.53,1.53,0,0,0,7.313,5.463V21.478A1.53,1.53,0,0,0,8.838,23h11.44A1.53,1.53,0,0,0,21.8,21.478V9.9H17.227A2.148,2.148,0,0,1,15.082,7.751Z" fill="#c1c7d0"/>
  </g>
</svg>
