<svg xmlns="http://www.w3.org/2000/svg" width="722.859" height="618.662" viewBox="0 0 722.859 618.662">
      <path id="Tracé_1" data-name="Tracé 1" d="M186.018,214.318a4.471,4.471,0,0,0-.544-.509c0-.158-.789,0-1,.7-.333,1.3-.526,2.3-.666,3.086a13.471,13.471,0,0,0-.21,1.754v.245l-.281.649-2.63,6.137-5.261,12.275Q164.9,263.1,154.384,286.985l-10.521,23.69-2.63,5.857-1.3,2.928c-.509,1.052-.649,1.578-1.859,3.805a48.943,48.943,0,0,1-7.207,10.065,46.627,46.627,0,0,1-9.381,7.838,48.66,48.66,0,0,1-22.8,7.523A50.2,50.2,0,0,1,75.4,344.729a48.138,48.138,0,0,1-26.987-29.793c-.333-.929-.561-1.894-.807-2.858l-.351-1.438L47,309.448q-4.91-23.568-9.417-46.1c-5.98-30-11.363-58.446-16.063-84.767C2.684,73.3-5.137,2.068,3.508.157S35.072,66,62.463,168.8C69.3,194.5,76.491,222.4,83.628,251.967c3.612,14.765,7.242,29.968,10.907,45.5v.281h.105a.228.228,0,0,0,.158,0s.105-.105.105-.14c1.543-3.507,3.069-6.891,4.612-10.363q5.1-11.363,10.276-22.8,10.381-22.989,21.183-46.346l5.418-11.679,2.736-5.857,5.085-11.135q5.261-11.661,10.7-23.34L160.17,154.5l2.911-5.787,1.4-2.525.719-1.245a8.014,8.014,0,0,1,.736-1.017l1.508-1.876.754-.947a4.945,4.945,0,0,1,.754-.737l2.893-2.7,2.788-1.754a13.836,13.836,0,0,1,1.368-.842l1.245-.579,2.508-1.175c.736-.281,1.438-.473,2.157-.7l2.139-.7c.666-.158,1.21-.316,2-.456a24.286,24.286,0,0,1,7.768,0,21.041,21.041,0,0,1,3.928,1c.544.193,1,.4,1.4.579a6.481,6.481,0,0,1,.947.544l.877.544.947.666,1.894,1.385c.316.245.614.421.964.719l1.052.982,2.1,1.946a40.647,40.647,0,0,1,5.085,6.7,35.982,35.982,0,0,1,4.209,10.363q3.946,17.991,7.751,35.474l3.718,17.009c.614,3.086,1.245,6.155,1.859,9.206q1.754,9.083,3.507,17.921l1.754,8.768.438,2.174a1.56,1.56,0,0,1,0,.491v.263l.105,1.052.473,4.647a6.348,6.348,0,0,0,.614,2.472,4.56,4.56,0,0,0,1.754,1.754,3.91,3.91,0,0,0,4.4-.14,37.306,37.306,0,0,0,2.981-3.595l1.333-1.754.666-.894.351-.438.175-.228.263-.386,7.172-10.925,14.028-21.376q13.835-21.043,27.04-41.121l26.11-39.718,3.209-4.91,3.279-4.717L336.455,118c4.244-6.7,8.663-13.52,13.818-20.131a100.144,100.144,0,0,1,18.219-18.342c1.754-1.4,3.682-2.543,5.524-3.788a64.81,64.81,0,0,1,5.945-3.262,45.8,45.8,0,0,1,6.3-2.613,62.9,62.9,0,0,1,6.418-1.946,65.162,65.162,0,0,1,27-1.1A73.492,73.492,0,0,1,444.807,76.4,106.425,106.425,0,0,1,465.674,92.85a173.271,173.271,0,0,1,17.308,20.464,310.836,310.836,0,0,1,27.952,47.995l.228.509.21.491a86.958,86.958,0,0,0,17.29,25.234,84.03,84.03,0,0,0,28.057,19.2A92.464,92.464,0,0,0,574.254,212a110.209,110.209,0,0,0,19.1,1.613,145.106,145.106,0,0,0,40.016-6.7,147.808,147.808,0,0,1-39.964,8.224,114.561,114.561,0,0,1-19.535-.859,95.92,95.92,0,0,1-18.342-4.629,89.114,89.114,0,0,1-30.179-18.605,94.356,94.356,0,0,1-19.85-26.005l-.175-.386-.193-.368a291.8,291.8,0,0,0-29.565-45.242,157.973,157.973,0,0,0-17.342-18.272,114.593,114.593,0,0,0-9.434-7.54,87.68,87.68,0,0,0-10.013-6.085,59.972,59.972,0,0,0-21.043-6.593A49.889,49.889,0,0,0,396.97,82.8c-13.45,4.121-23.3,14.028-31.424,26.093-4.051,6.032-7.663,12.608-11.293,19.377l-5.489,10.363-2.893,5.261-2.841,5.155L319.971,190.61c-7.786,14.028-15.782,28.355-23.866,43.05l-12.4,22.358q-3.156,5.682-6.348,11.433l-10.977,19.1-1.754,2.7a18.446,18.446,0,0,1-1.841,2.56,43.154,43.154,0,0,1-3.858,4.314A39.507,39.507,0,0,1,251,302.434a29.81,29.81,0,0,1-21.9,2.736,30.231,30.231,0,0,1-14.432-8.312,42.623,42.623,0,0,1-3.262-3.963l-1.561-2.4-.789-1.192-.386-.614-.351-.719-1.42-2.928a13.143,13.143,0,0,1-.684-1.508l-.579-1.754c-.368-1.14-.772-2.262-1.1-3.507l-.947-3.665-1.929-7.277-1.929-7.505-.912-3.507-.666-2.139-2.35-8.645q-2.367-8.768-4.8-17.623c-.807-2.963-1.631-5.962-2.437-8.961l-.666-1.4c-.421-.877-.807-1.6-1.157-2.174a9.693,9.693,0,0,0-.719-1.052Z" 
        transform="translate(125 125)" fill="#141473" fill-rule="evenodd"/>
</svg>
