<svg id="Component_Icon_Home" data-name="Component/Icon/Home" xmlns="http://www.w3.org/2000/svg" width="18.333" height="18.333" viewBox="0 0 18.333 18.333">
  <path id="Path" d="M1.833,0A1.833,1.833,0,0,0,0,1.833V4.627a.611.611,0,0,0,.611.611H3.754a.611.611,0,0,0,.611-.611V1.833A1.833,1.833,0,0,0,2.532,0Z" transform="translate(6.984 13.095)" fill="#c1c7d0"/>
  <path id="Path-2" data-name="Path" d="M12.222,17.794V14.918a2.832,2.832,0,0,0-2.85-2.7H8.961a2.832,2.832,0,0,0-2.85,2.7v2.876a1.615,1.615,0,0,0,.092.539H4.853a2.7,2.7,0,0,1-2.7-2.7V7.389L.894,8.494a.539.539,0,1,1-.71-.812L8.812.133a.539.539,0,0,1,.71,0l8.627,7.549a.539.539,0,0,1-.71.812l-1.263-1.1v8.248a2.7,2.7,0,0,1-2.7,2.7H12.13A1.615,1.615,0,0,0,12.222,17.794Z" transform="translate(0 0)" fill="#c1c7d0"/>
</svg>
