<svg xmlns="http://www.w3.org/2000/svg" width="50.191" height="50.191" viewBox="0 0 50.191 50.191">
  <g id="Groupe_12367" data-name="Groupe 12367" transform="translate(-11677 -6172.828)">
    <g id="Groupe_12366" data-name="Groupe 12366" transform="translate(11677 6172.828)">
      <g id="Tracé_14113" data-name="Tracé 14113" fill="#141473">
        <path d="M 25.09555816650391 49.44111633300781 C 21.80859756469727 49.44111633300781 18.62035751342773 48.79752731323242 15.61939811706543 47.52822875976562 C 12.72043800354004 46.30206680297852 10.11674785614014 44.54655838012695 7.880648136138916 42.31046676635742 C 5.644557952880859 40.07436752319336 3.889048099517822 37.47067642211914 2.662888050079346 34.57171630859375 C 1.393588185310364 31.57075881958008 0.749998152256012 28.38251876831055 0.749998152256012 25.09555816650391 C 0.749998152256012 21.80859756469727 1.393588185310364 18.62035751342773 2.662888050079346 15.61939811706543 C 3.889048099517822 12.72043800354004 5.644557952880859 10.11674785614014 7.880648136138916 7.880648136138916 C 10.11674785614014 5.644557952880859 12.72043800354004 3.889048099517822 15.61939811706543 2.662888050079346 C 18.62035751342773 1.393588185310364 21.80859756469727 0.749998152256012 25.09555816650391 0.749998152256012 C 28.38251876831055 0.749998152256012 31.57075881958008 1.393588185310364 34.57171630859375 2.662888050079346 C 37.47067642211914 3.889048099517822 40.07436752319336 5.644557952880859 42.31046676635742 7.880648136138916 C 44.54655838012695 10.11674785614014 46.30206680297852 12.72043800354004 47.52822875976562 15.61939811706543 C 48.79752731323242 18.62035751342773 49.44111633300781 21.80859756469727 49.44111633300781 25.09555816650391 C 49.44111633300781 28.38251876831055 48.79752731323242 31.57075881958008 47.52822875976562 34.57171630859375 C 46.30206680297852 37.47067642211914 44.54655838012695 40.07436752319336 42.31046676635742 42.31046676635742 C 40.07436752319336 44.54655838012695 37.47067642211914 46.30206680297852 34.57171630859375 47.52822875976562 C 31.57075881958008 48.79752731323242 28.38251876831055 49.44111633300781 25.09555816650391 49.44111633300781 Z" stroke="none"/>
        <path d="M 25.09555816650391 1.5 C 21.90951728820801 1.5 18.81957817077637 2.123649597167969 15.91156768798828 3.3536376953125 C 13.10199737548828 4.541988372802734 10.57843780517578 6.243518829345703 8.410976409912109 8.410976409912109 C 6.243518829345703 10.57843780517578 4.541988372802734 13.10199737548828 3.3536376953125 15.91156768798828 C 2.123649597167969 18.81957817077637 1.5 21.90951728820801 1.5 25.09555816650391 C 1.5 28.2815990447998 2.123649597167969 31.37153816223145 3.3536376953125 34.27954864501953 C 4.541988372802734 37.08911895751953 6.243518829345703 39.61267852783203 8.410976409912109 41.78013610839844 C 10.57843780517578 43.94759750366211 13.10199737548828 45.64912796020508 15.91156768798828 46.83747863769531 C 18.81957817077637 48.06746673583984 21.90951728820801 48.69111633300781 25.09555816650391 48.69111633300781 C 28.2815990447998 48.69111633300781 31.37153816223145 48.06746673583984 34.27954864501953 46.83747863769531 C 37.08911895751953 45.64912796020508 39.61267852783203 43.94759750366211 41.78013610839844 41.78013610839844 C 43.94759750366211 39.61267852783203 45.64912796020508 37.08911895751953 46.83747863769531 34.27954864501953 C 48.06746673583984 31.37153816223145 48.69111633300781 28.2815990447998 48.69111633300781 25.09555816650391 C 48.69111633300781 21.90951728820801 48.06746673583984 18.81957817077637 46.83747863769531 15.91156768798828 C 45.64912796020508 13.10199737548828 43.94759750366211 10.57843780517578 41.78013610839844 8.410976409912109 C 39.61267852783203 6.243518829345703 37.08911895751953 4.541988372802734 34.27954864501953 3.3536376953125 C 31.37153816223145 2.123649597167969 28.2815990447998 1.5 25.09555816650391 1.5 M 25.09555816650391 0 C 38.95544815063477 0 50.19111633300781 11.23566818237305 50.19111633300781 25.09555816650391 C 50.19111633300781 38.95544815063477 38.95544815063477 50.19111633300781 25.09555816650391 50.19111633300781 C 11.23566818237305 50.19111633300781 0 38.95544815063477 0 25.09555816650391 C 0 11.23566818237305 11.23566818237305 0 25.09555816650391 0 Z" stroke="none" fill="#141473"/>
      </g>
    </g>
    <path id="Icon_awesome-briefcase" data-name="Icon awesome-briefcase" d="M16.524,17.948a.826.826,0,0,1-.826.826H10.741a.826.826,0,0,1-.826-.826V15.469H0v7.436a2.541,2.541,0,0,0,2.479,2.479H23.96a2.541,2.541,0,0,0,2.479-2.479V15.469H16.524ZM23.96,7.207H19.829V4.729A2.541,2.541,0,0,0,17.351,2.25H9.088A2.541,2.541,0,0,0,6.61,4.729V7.207H2.479A2.541,2.541,0,0,0,0,9.686v4.131H26.439V9.686A2.541,2.541,0,0,0,23.96,7.207Zm-7.436,0H9.915V5.555h6.61Z" transform="translate(11688.763 6183.345)" fill="#fff"/>
  </g>
</svg>
