<svg xmlns="http://www.w3.org/2000/svg" width="22" height="30.273" viewBox="0 0 22 30.273">
  <g id="Notifications" transform="translate(-3 3)">
    <g id="Icons_Bell" data-name="Icons/Bell" transform="translate(3 7.273)">
      <path id="Shape" d="M2.822,19.374l.257-4.044L.853,11.42A6.5,6.5,0,0,1,3.182,2.6a6.312,6.312,0,0,1,8.69,2.363L14.1,8.878l3.581,1.8a.591.591,0,0,1,.033,1.034L3.688,19.921A.569.569,0,0,1,3.4,20,.584.584,0,0,1,2.822,19.374ZM8.584,18.6l5.121-3a3.308,3.308,0,0,1-1.673,3.059,3.4,3.4,0,0,1-1.713.472A3.014,3.014,0,0,1,8.584,18.6ZM0,3.392A3.3,3.3,0,0,1,1.682.473,3.4,3.4,0,0,1,3.395,0,3.038,3.038,0,0,1,5.017.456,8.951,8.951,0,0,0,2.275,1.511,9.048,9.048,0,0,0,0,3.393l0,0Z" transform="translate(0)" fill="#002251"/>
    </g>
    <circle id="Oval" cx="7" cy="7" r="7" transform="translate(9)" fill="#5148ff" stroke="#fefefe" stroke-miterlimit="10" stroke-width="4"/>
    <g id="Component_Icon_Notifications_Count" data-name="Component/Icon/Notifications Count" transform="translate(9 -3)">
      <circle id="Oval-3" data-name="Oval" cx="7" cy="7" r="7" transform="translate(0 3)" fill="#3500e6"/>
      <text id="value-2" data-name="value" transform="translate(6.5)" fill="#fff" font-size="14" font-family="Rubik-Medium, Rubik" font-weight="500"><tspan x="-3.704" y="15">1</tspan></text>
    </g>
  </g>
</svg>
