<svg id="Component_Tab_Bar_Item_Normal" data-name="Component/Tab Bar/Item/Normal" xmlns="http://www.w3.org/2000/svg" width="16.334" height="21" viewBox="0 0 16.334 21">
  <g id="Component_Icon_Home" data-name="Component/Icon/Home" transform="translate(0)">
    <path id="Path" d="M15.789,21H.545A.536.536,0,0,1,0,20.475v-2.1A8.034,8.034,0,0,1,8.167,10.5a8.034,8.034,0,0,1,8.167,7.875v2.1A.536.536,0,0,1,15.789,21ZM8.167,9.45a4.821,4.821,0,0,1-4.9-4.725A4.821,4.821,0,0,1,8.167,0a4.82,4.82,0,0,1,4.9,4.725A4.82,4.82,0,0,1,8.167,9.45Z" fill="#c1c7d0"/>
  </g>
</svg>
