<svg xmlns="http://www.w3.org/2000/svg" xmlns:xlink="http://www.w3.org/1999/xlink" width="61.268" height="67.263" viewBox="0 0 61.268 67.263">
  <defs>
    <clipPath id="clip-path">
      <path id="Border_Base" data-name="Border Base" d="M574.28,191.481a6.634,6.634,0,0,1-3.072,5.224l-24.432,13.819a7.017,7.017,0,0,1-6.211,0l-24.448-13.819a6.679,6.679,0,0,1-3.105-5.224v-27.73a6.688,6.688,0,0,1,3.11-5.225l24.452-13.816a7.031,7.031,0,0,1,6.22,0l24.413,13.816a6.639,6.639,0,0,1,3.072,5.225Z" transform="translate(-513.012 -143.985)" fill="#cddeed" stroke="#cddeed" stroke-width="2"/>
    </clipPath>
    <clipPath id="clip-path-2">
      <path id="Inside" d="M571.3,191.135a5.763,5.763,0,0,1-2.622,4.525l-20.856,11.972a5.91,5.91,0,0,1-5.3,0l-20.87-11.972A5.8,5.8,0,0,1,519,191.135V167.111a5.809,5.809,0,0,1,2.655-4.527l20.874-11.969a5.922,5.922,0,0,1,5.31,0l20.84,11.969a5.768,5.768,0,0,1,2.622,4.527Z" transform="translate(-518.996 -149.987)" fill="#9fb7cc" stroke="#798b9b" stroke-width="2"/>
    </clipPath>
  </defs>
  <g id="Groupe_12282" data-name="Groupe 12282" transform="translate(-46 -163.985)">
    <g id="Badge" transform="translate(-467.012 20)">
      <g id="Border_Base-2" data-name="Border Base" transform="translate(513.012 143.985)">
        <g id="Border_Base-3" data-name="Border Base" transform="translate(-513.012 -143.985)" fill="#9bb9d8">
          <path d="M 543.6698608398438 210.2481994628906 C 542.6787719726562 210.2481994628906 541.7264404296875 210.0312805175781 541.05712890625 209.6530914306641 L 516.609375 195.8345489501953 C 515.2258911132812 195.052001953125 514.0120239257812 193.0177307128906 514.0120239257812 191.4813842773438 L 514.0120239257812 163.7510223388672 C 514.0120239257812 162.2156219482422 515.228271484375 160.1807098388672 516.61474609375 159.3963012695312 L 541.066650390625 145.5810546875 C 541.7362060546875 145.2023010253906 542.690185546875 144.9852142333984 543.6842651367188 144.9852142333984 C 544.678466796875 144.9852142333984 545.6327514648438 145.2023315429688 546.302490234375 145.5809326171875 L 570.7150268554688 159.396240234375 C 572.10546875 160.1816253662109 573.279541015625 162.1756896972656 573.279541015625 163.7510223388672 L 573.279541015625 191.4813842773438 C 573.279541015625 193.0564575195312 572.1055297851562 195.0498352050781 570.7159423828125 195.8342742919922 L 546.2835083007812 209.6532897949219 C 545.614013671875 210.0312042236328 544.6610717773438 210.2481994628906 543.6698608398438 210.2481994628906 Z" stroke="none"/>
          <path d="M 543.6698608398438 209.2482299804688 C 544.48193359375 209.2482299804688 545.2755126953125 209.0739288330078 545.7911376953125 208.7828674316406 L 570.224365234375 194.9634552001953 C 571.2999267578125 194.3562774658203 572.279541015625 192.6965789794922 572.279541015625 191.4813995361328 L 572.279541015625 163.7510528564453 C 572.279541015625 162.5354614257812 571.2997436523438 160.8749847412109 570.2224731445312 160.2665252685547 L 545.8104248046875 146.4514617919922 C 545.2940063476562 146.1595153808594 544.4991455078125 145.9852294921875 543.6842651367188 145.9852294921875 C 542.8695678710938 145.9852294921875 542.0751953125 146.1593933105469 541.5585327148438 146.4516906738281 L 517.107177734375 160.2666931152344 C 516.0302124023438 160.8759307861328 515.0120239257812 162.5692901611328 515.0120239257812 163.7510528564453 L 515.0120239257812 191.4813995361328 C 515.0120239257812 192.6640472412109 516.0277099609375 194.356689453125 517.1013793945312 194.9639892578125 L 541.549072265625 208.7823944091797 C 542.0652465820312 209.0741119384766 542.8580322265625 209.2482299804688 543.6698608398438 209.2482299804688 M 543.6698608398438 211.2481994628906 C 542.5447998046875 211.2481994628906 541.4199829101562 211.0066986083984 540.565185546875 210.5236968994141 L 516.1173095703125 196.7051086425781 C 514.4078979492188 195.7382202148438 513.0120239257812 193.3883972167969 513.0120239257812 191.4813995361328 L 513.0120239257812 163.7510528564453 C 513.0120239257812 161.8453369140625 514.4122314453125 159.493408203125 516.1223754882812 158.5259246826172 L 540.57470703125 144.7104034423828 C 542.2840576171875 143.7434539794922 545.0841674804688 143.7434539794922 546.7946166992188 144.7104034423828 L 571.20751953125 158.5259246826172 C 572.9203491210938 159.493408203125 574.279541015625 161.8453369140625 574.279541015625 163.7510528564453 L 574.279541015625 191.4813995361328 C 574.279541015625 193.3883972167969 572.9203491210938 195.7382202148438 571.20751953125 196.7051086425781 L 546.7758178710938 210.5236968994141 C 545.920166015625 211.0066986083984 544.794921875 211.2481994628906 543.6698608398438 211.2481994628906 Z" stroke="none" fill="#9bb9d8"/>
        </g>
        <g id="Clip" clip-path="url(#clip-path)">
          <path id="Light" d="M9.809,60.534,84.633,16.771,96.705,37.412,21.882,81.176ZM0,43.764,74.824,0,80.86,10.321,6.036,54.084Z" transform="translate(-15.621 -7.607)" fill="#fff"/>
        </g>
      </g>
      <g id="Inside-2" data-name="Inside" transform="translate(517.484 148.47)">
        <g id="Inside-3" data-name="Inside" transform="translate(-518.996 -149.987)" fill="#d4e5f1">
          <path d="M 545.166748046875 207.2599487304688 C 544.3473510742188 207.2599487304688 543.562744140625 207.0794219970703 543.0140380859375 206.7646636962891 L 522.1443481445312 194.7929229736328 C 521 194.1360321044922 519.9959106445312 192.4266357421875 519.9959106445312 191.1349487304688 L 519.9959106445312 167.1109924316406 C 519.9959106445312 165.8201141357422 521.0020751953125 164.1099548339844 522.1490478515625 163.4512634277344 L 543.0220336914062 151.4824829101562 C 543.5711059570312 151.167236328125 544.3571166992188 150.9866027832031 545.1790771484375 150.9866027832031 C 546.0010986328125 150.9866027832031 546.7874145507812 151.1672821044922 547.3363647460938 151.4823150634766 L 568.176025390625 163.4512481689453 C 569.3058471679688 164.0990905761719 570.29638671875 165.80908203125 570.29638671875 167.1109924316406 L 570.29638671875 191.1349487304688 C 570.29638671875 192.4366149902344 569.3060302734375 194.1458129882812 568.1769409179688 194.7926483154297 L 547.3203735351562 206.7648162841797 C 546.7714233398438 207.079345703125 545.9862670898438 207.2599487304688 545.166748046875 207.2599487304688 Z" stroke="none"/>
          <path d="M 545.166748046875 206.2599792480469 C 545.8074951171875 206.2599792480469 546.4269409179688 206.1242523193359 546.822509765625 205.8975372314453 L 567.6798706054688 193.9249725341797 C 568.5108032226562 193.4489288330078 569.29638671875 192.0930328369141 569.29638671875 191.1349182128906 L 569.29638671875 167.1109771728516 C 569.29638671875 166.1525268554688 568.5104370117188 164.7957611083984 567.677978515625 164.3184204101562 L 546.8387451171875 152.3497009277344 C 546.4425048828125 152.122314453125 545.8220825195312 151.9865875244141 545.1790771484375 151.9865875244141 C 544.5362548828125 151.9865875244141 543.9161987304688 152.1222534179688 543.51953125 152.3499755859375 L 522.6470336914062 164.3184204101562 C 521.8137817382812 164.7969818115234 520.9959106445312 166.1802062988281 520.9959106445312 167.1109771728516 L 520.9959106445312 191.1349182128906 C 520.9959106445312 192.0664215087891 521.8115234375 193.4488067626953 522.6419677734375 193.925537109375 L 543.51171875 205.8973083496094 C 543.9075927734375 206.1244201660156 544.5263061523438 206.2599792480469 545.166748046875 206.2599792480469 M 545.166748046875 208.2599639892578 C 544.2063598632812 208.2599639892578 543.2461547851562 208.0506744384766 542.5164794921875 207.6320953369141 L 521.6467895507812 195.6603698730469 C 520.1875 194.8226928710938 518.9959106445312 192.7869720458984 518.9959106445312 191.1349182128906 L 518.9959106445312 167.1109771728516 C 518.9959106445312 165.4599151611328 520.191162109375 163.4224700927734 521.6510620117188 162.5840911865234 L 542.5245971679688 150.6149749755859 C 543.9838256835938 149.7771453857422 546.3740234375 149.7771453857422 547.8341064453125 150.6149749755859 L 568.674072265625 162.5840911865234 C 570.1361694335938 163.4224700927734 571.29638671875 165.4599151611328 571.29638671875 167.1109771728516 L 571.29638671875 191.1349182128906 C 571.29638671875 192.7869720458984 570.1361694335938 194.8226928710938 568.674072265625 195.6603698730469 L 547.8181762695312 207.6320953369141 C 547.0877075195312 208.0506744384766 546.1271362304688 208.2599639892578 545.166748046875 208.2599639892578 Z" stroke="none" fill="#708fae"/>
        </g>
      </g>
    </g>
    <path id="Icon_feather-check" data-name="Icon feather-check" d="M28.036,9,12.886,24.15,6,17.264" transform="translate(59.616 181.422)" fill="none" stroke="#fff" stroke-linecap="round" stroke-linejoin="round" stroke-width="5"/>
  </g>
</svg>
