<svg xmlns="http://www.w3.org/2000/svg" xmlns:xlink="http://www.w3.org/1999/xlink" width="228.023" height="317.466" viewBox="0 0 228.023 317.466">
  <defs>
    <linearGradient id="linear-gradient" y1="0.5" x2="1" y2="0.5" gradientUnits="objectBoundingBox">
      <stop offset="0" stop-color="#f5f7fa"/>
      <stop offset="1" stop-color="#c3cfe2"/>
    </linearGradient>
    <radialGradient id="radial-gradient" cx="0.5" cy="0.5" r="0.5" gradientTransform="matrix(0, -1, -1, 0, -3.493, -3.493)" gradientUnits="objectBoundingBox">
      <stop offset="0" stop-color="#7f96b0"/>
      <stop offset="0.114" stop-color="#8399b2" stop-opacity="0.961"/>
      <stop offset="0.277" stop-color="#91a5bb" stop-opacity="0.855"/>
      <stop offset="0.468" stop-color="#a7b7c9" stop-opacity="0.682"/>
      <stop offset="0.681" stop-color="#c6d0dc" stop-opacity="0.439"/>
      <stop offset="0.909" stop-color="#edf0f4" stop-opacity="0.133"/>
      <stop offset="1" stop-color="#fff" stop-opacity="0"/>
    </radialGradient>
    <linearGradient id="linear-gradient-5" x1="0.073" y1="0.005" x2="1.411" y2="0.956" gradientUnits="objectBoundingBox">
      <stop offset="0" stop-color="#f5f7fa"/>
      <stop offset="1" stop-color="#dfe6f0"/>
    </linearGradient>
    <radialGradient id="radial-gradient-2" cx="0.5" cy="0.5" r="0.5" gradientUnits="objectBoundingBox">
      <stop offset="0" stop-color="#c4d1d4"/>
      <stop offset="0.101" stop-color="#c5d2d5" stop-opacity="0.969"/>
      <stop offset="0.245" stop-color="#cbd6d9" stop-opacity="0.882"/>
      <stop offset="0.414" stop-color="#d3dddf" stop-opacity="0.737"/>
      <stop offset="0.602" stop-color="#dfe6e7" stop-opacity="0.533"/>
      <stop offset="0.804" stop-color="#eef2f2" stop-opacity="0.282"/>
      <stop offset="1" stop-color="#fff" stop-opacity="0"/>
    </radialGradient>
  </defs>
  <g id="Groupe_12232" data-name="Groupe 12232" transform="translate(-889.5 -5381.158)">
    <g id="Groupe_12231" data-name="Groupe 12231" transform="translate(1057.858 5596.502)">
      <g id="Groupe_3" data-name="Groupe 3" transform="translate(0 16.853)">
        <g id="Groupe_2" data-name="Groupe 2" transform="translate(0 3.879)" style="mix-blend-mode: multiply;isolation: isolate">
          <path id="Tracé_33" data-name="Tracé 33" d="M1860.744,1079.855c7.627,0,14.765-1.7,20.1-4.775,4.849-2.8,7.522-6.345,7.527-9.984.005-3.606-2.62-7.119-7.393-9.892-5.294-3.077-12.409-4.771-20.033-4.771s-14.765,1.7-20.1,4.775c-4.849,2.8-7.522,6.345-7.527,9.984,0,3.606,2.621,7.119,7.394,9.893,5.294,3.077,12.409,4.771,20.032,4.771Z" transform="translate(-1833.317 -1050.432)" fill="#fff" opacity="0"/>
          <path id="Tracé_34" data-name="Tracé 34" d="M1860.866,1079.671c7.57,0,14.653-1.683,19.946-4.739,4.812-2.778,7.465-6.3,7.47-9.908.005-3.578-2.6-7.065-7.337-9.818-5.254-3.053-12.315-4.735-19.881-4.735s-14.653,1.683-19.946,4.739c-4.812,2.778-7.465,6.3-7.47,9.908-.005,3.578,2.6,7.065,7.338,9.818,5.253,3.053,12.314,4.735,19.88,4.735Z" transform="translate(-1833.56 -1050.461)" fill="#fcfdfe" opacity="0.032"/>
          <path id="Tracé_35" data-name="Tracé 35" d="M1860.99,1079.486c7.511,0,14.541-1.67,19.794-4.7,4.775-2.757,7.408-6.249,7.413-9.833.005-3.551-2.581-7.011-7.281-9.742-5.214-3.03-12.221-4.7-19.73-4.7s-14.541,1.67-19.793,4.7c-4.775,2.757-7.408,6.249-7.413,9.833,0,3.551,2.581,7.011,7.282,9.743,5.213,3.03,12.22,4.7,19.729,4.7Z" transform="translate(-1833.804 -1050.489)" fill="#fafbfd" opacity="0.065"/>
          <path id="Tracé_36" data-name="Tracé 36" d="M1861.113,1079.3c7.454,0,14.429-1.657,19.641-4.666,4.739-2.736,7.351-6.2,7.356-9.757.005-3.524-2.561-6.957-7.225-9.667-5.174-3.007-12.127-4.663-19.578-4.663s-14.429,1.657-19.641,4.666c-4.739,2.736-7.351,6.2-7.356,9.756-.005,3.524,2.561,6.957,7.226,9.668,5.173,3.006,12.126,4.662,19.576,4.662Z" transform="translate(-1834.047 -1050.518)" fill="#f7f9fc" opacity="0.097"/>
          <path id="Tracé_37" data-name="Tracé 37" d="M1861.234,1079.118c7.4,0,14.317-1.644,19.489-4.63,4.7-2.715,7.294-6.153,7.3-9.681.005-3.5-2.541-6.9-7.169-9.593-5.134-2.983-12.033-4.626-19.426-4.626s-14.317,1.644-19.488,4.63c-4.7,2.715-7.294,6.153-7.3,9.681,0,3.5,2.542,6.9,7.17,9.593,5.133,2.983,12.032,4.626,19.425,4.626Z" transform="translate(-1834.29 -1050.547)" fill="#f4f6fa" opacity="0.129"/>
          <path id="Tracé_38" data-name="Tracé 38" d="M1861.357,1078.934c7.338,0,14.205-1.631,19.336-4.594,4.665-2.693,7.237-6.1,7.242-9.606,0-3.469-2.521-6.849-7.113-9.517-5.094-2.96-11.938-4.59-19.273-4.59s-14.2,1.631-19.336,4.594c-4.665,2.693-7.237,6.1-7.242,9.6,0,3.469,2.521,6.849,7.113,9.518,5.093,2.96,11.938,4.59,19.273,4.59Z" transform="translate(-1834.533 -1050.575)" fill="#f2f4f9" opacity="0.161"/>
          <path id="Tracé_39" data-name="Tracé 39" d="M1861.48,1078.75c7.28,0,14.093-1.619,19.184-4.558,4.628-2.672,7.18-6.056,7.185-9.53.005-3.442-2.5-6.795-7.057-9.442-5.053-2.937-11.845-4.554-19.122-4.554s-14.093,1.619-19.184,4.558c-4.628,2.672-7.18,6.056-7.185,9.529,0,3.442,2.5,6.8,7.057,9.443,5.053,2.937,11.844,4.554,19.121,4.554Z" transform="translate(-1834.777 -1050.604)" fill="#eff2f8" opacity="0.194"/>
          <path id="Tracé_40" data-name="Tracé 40" d="M1861.6,1078.565c7.222,0,13.981-1.606,19.031-4.522,4.592-2.651,7.123-6.008,7.128-9.454.005-3.414-2.482-6.741-7-9.367-5.013-2.913-11.75-4.518-18.97-4.518s-13.981,1.606-19.031,4.522c-4.592,2.651-7.123,6.008-7.127,9.454,0,3.414,2.482,6.741,7,9.368,5.013,2.913,11.75,4.517,18.969,4.517Z" transform="translate(-1835.02 -1050.633)" fill="#ecf0f7" opacity="0.226"/>
          <path id="Tracé_41" data-name="Tracé 41" d="M1861.726,1078.381c7.165,0,13.869-1.593,18.879-4.485,4.555-2.63,7.066-5.96,7.071-9.378,0-3.387-2.462-6.687-6.945-9.292-4.973-2.89-11.656-4.482-18.818-4.482s-13.869,1.593-18.879,4.485c-4.555,2.63-7.066,5.96-7.07,9.378,0,3.387,2.462,6.687,6.945,9.293,4.972,2.89,11.656,4.481,18.817,4.481Z" transform="translate(-1835.264 -1050.661)" fill="#eaeef6" opacity="0.258"/>
          <path id="Tracé_42" data-name="Tracé 42" d="M1861.848,1078.2c7.107,0,13.757-1.58,18.726-4.449,4.518-2.608,7.009-5.912,7.013-9.3.005-3.36-2.441-6.633-6.889-9.217-4.933-2.867-11.562-4.445-18.666-4.445s-13.757,1.58-18.726,4.449c-4.518,2.609-7.008,5.912-7.013,9.3,0,3.36,2.442,6.633,6.889,9.218,4.932,2.866,11.562,4.445,18.665,4.445Z" transform="translate(-1835.506 -1050.69)" fill="#e7ecf5" opacity="0.29"/>
          <path id="Tracé_43" data-name="Tracé 43" d="M1861.971,1078.013c7.049,0,13.645-1.567,18.574-4.413,4.481-2.587,6.951-5.864,6.956-9.227,0-3.332-2.422-6.579-6.833-9.142-4.893-2.844-11.468-4.409-18.514-4.409s-13.645,1.567-18.574,4.413c-4.481,2.587-6.952,5.864-6.956,9.227,0,3.332,2.422,6.579,6.833,9.143,4.892,2.843,11.467,4.409,18.513,4.409Z" transform="translate(-1835.75 -1050.719)" fill="#e5eaf3" opacity="0.323"/>
          <path id="Tracé_44" data-name="Tracé 44" d="M1862.094,1077.829c6.991,0,13.533-1.554,18.422-4.377,4.444-2.566,6.895-5.816,6.9-9.151,0-3.3-2.4-6.525-6.777-9.067-4.853-2.82-11.374-4.373-18.362-4.373s-13.533,1.554-18.422,4.377c-4.444,2.566-6.894,5.816-6.9,9.151,0,3.305,2.4,6.525,6.777,9.068,4.852,2.82,11.373,4.373,18.361,4.373Z" transform="translate(-1835.993 -1050.748)" fill="#e2e8f2" opacity="0.355"/>
          <path id="Tracé_45" data-name="Tracé 45" d="M1862.217,1077.645c6.933,0,13.421-1.541,18.269-4.34,4.407-2.545,6.837-5.768,6.842-9.075,0-3.277-2.382-6.471-6.72-8.992-4.812-2.8-11.28-4.337-18.21-4.337s-13.421,1.541-18.269,4.34c-4.407,2.545-6.837,5.768-6.842,9.075,0,3.278,2.382,6.471,6.721,8.992,4.812,2.8,11.279,4.337,18.209,4.337Z" transform="translate(-1836.237 -1050.776)" fill="#dfe5f1" opacity="0.387"/>
          <path id="Tracé_46" data-name="Tracé 46" d="M1862.34,1077.461c6.875,0,13.309-1.529,18.117-4.3,4.371-2.523,6.78-5.719,6.785-9,0-3.25-2.362-6.417-6.664-8.917-4.772-2.773-11.186-4.3-18.058-4.3s-13.309,1.528-18.117,4.3c-4.371,2.523-6.78,5.719-6.785,9,0,3.25,2.362,6.417,6.665,8.918,4.772,2.773,11.185,4.3,18.057,4.3Z" transform="translate(-1836.48 -1050.805)" fill="#dde3f0" opacity="0.419"/>
          <path id="Tracé_47" data-name="Tracé 47" d="M1862.462,1077.276c6.818,0,13.2-1.516,17.965-4.268,4.334-2.5,6.723-5.672,6.728-8.924,0-3.223-2.342-6.363-6.608-8.842-4.732-2.75-11.092-4.264-17.906-4.264s-13.2,1.516-17.964,4.268c-4.334,2.5-6.723,5.671-6.728,8.924,0,3.223,2.343,6.363,6.609,8.842,4.731,2.75,11.091,4.264,17.905,4.264Z" transform="translate(-1836.723 -1050.834)" fill="#dae1ef" opacity="0.452"/>
          <path id="Tracé_48" data-name="Tracé 48" d="M1862.585,1077.092c6.76,0,13.085-1.5,17.812-4.232,4.3-2.481,6.667-5.623,6.671-8.848,0-3.2-2.323-6.309-6.552-8.767-4.692-2.727-11-4.229-17.754-4.229s-13.085,1.5-17.812,4.232c-4.3,2.481-6.666,5.623-6.671,8.848,0,3.2,2.323,6.309,6.553,8.767,4.691,2.726,11,4.228,17.753,4.228Z" transform="translate(-1836.966 -1050.862)" fill="#d7dfee" opacity="0.484"/>
          <path id="Tracé_49" data-name="Tracé 49" d="M1862.708,1076.908c6.7,0,12.973-1.49,17.66-4.2,4.26-2.46,6.609-5.575,6.614-8.772,0-3.168-2.3-6.255-6.5-8.692-4.652-2.7-10.9-4.192-17.6-4.192s-12.973,1.49-17.66,4.2c-4.26,2.46-6.609,5.575-6.614,8.772,0,3.168,2.3,6.255,6.5,8.693,4.651,2.7,10.9,4.192,17.6,4.192Z" transform="translate(-1837.21 -1050.891)" fill="#d5ddec" opacity="0.516"/>
          <path id="Tracé_50" data-name="Tracé 50" d="M1862.831,1076.724c6.644,0,12.861-1.477,17.507-4.159,4.224-2.439,6.552-5.527,6.557-8.7,0-3.141-2.283-6.2-6.44-8.617-4.612-2.68-10.809-4.156-17.45-4.156s-12.861,1.477-17.507,4.159c-4.224,2.439-6.552,5.527-6.557,8.7,0,3.141,2.283,6.2,6.44,8.617,4.611,2.68,10.809,4.156,17.45,4.156Z" transform="translate(-1837.453 -1050.92)" fill="#d2dbeb" opacity="0.548"/>
          <path id="Tracé_51" data-name="Tracé 51" d="M1862.954,1076.54c6.586,0,12.749-1.464,17.355-4.123,4.187-2.417,6.5-5.479,6.5-8.621,0-3.113-2.263-6.147-6.384-8.542-4.572-2.657-10.715-4.12-17.3-4.12s-12.749,1.464-17.354,4.123c-4.187,2.417-6.5,5.479-6.5,8.621,0,3.114,2.263,6.147,6.384,8.542,4.571,2.656,10.715,4.12,17.3,4.12Z" transform="translate(-1837.696 -1050.948)" fill="#cfd9ea" opacity="0.581"/>
          <path id="Tracé_52" data-name="Tracé 52" d="M1863.076,1076.356c6.528,0,12.637-1.451,17.2-4.087,4.15-2.4,6.438-5.431,6.442-8.545,0-3.086-2.243-6.093-6.328-8.467-4.531-2.633-10.621-4.084-17.147-4.084s-12.637,1.451-17.2,4.087c-4.15,2.4-6.438,5.431-6.442,8.545,0,3.086,2.243,6.094,6.328,8.468,4.531,2.633,10.62,4.083,17.146,4.083Z" transform="translate(-1837.939 -1050.977)" fill="#cdd7e9" opacity="0.613"/>
          <path id="Tracé_53" data-name="Tracé 53" d="M1863.2,1076.172c6.47,0,12.525-1.439,17.05-4.051,4.114-2.375,6.381-5.383,6.385-8.47,0-3.059-2.223-6.039-6.272-8.392-4.491-2.61-10.527-4.047-16.994-4.047s-12.525,1.438-17.05,4.051c-4.113,2.375-6.381,5.383-6.385,8.469,0,3.059,2.223,6.04,6.272,8.392,4.491,2.61,10.526,4.047,16.994,4.047Z" transform="translate(-1838.182 -1051.006)" fill="#cad4e8" opacity="0.645"/>
          <path id="Tracé_54" data-name="Tracé 54" d="M1863.322,1075.987c6.413,0,12.413-1.426,16.9-4.014,4.077-2.354,6.324-5.335,6.328-8.394,0-3.031-2.2-5.985-6.216-8.317-4.451-2.587-10.433-4.011-16.843-4.011s-12.413,1.426-16.9,4.015c-4.076,2.353-6.324,5.334-6.328,8.393,0,3.032,2.2,5.985,6.216,8.317,4.45,2.586,10.432,4.011,16.842,4.011Z" transform="translate(-1838.426 -1051.034)" fill="#c7d2e7" opacity="0.677"/>
          <path id="Tracé_55" data-name="Tracé 55" d="M1863.445,1075.8a34.061,34.061,0,0,0,16.745-3.978c4.04-2.332,6.267-5.286,6.271-8.318,0-3-2.183-5.931-6.16-8.242-4.411-2.563-10.338-3.975-16.691-3.975a34.061,34.061,0,0,0-16.745,3.978c-4.039,2.332-6.267,5.286-6.271,8.318,0,3,2.183,5.931,6.16,8.242,4.41,2.563,10.338,3.975,16.69,3.975Z" transform="translate(-1838.669 -1051.063)" fill="#c5d0e5" opacity="0.71"/>
          <path id="Tracé_56" data-name="Tracé 56" d="M1863.568,1075.619a33.757,33.757,0,0,0,16.593-3.942c4-2.311,6.21-5.238,6.214-8.242,0-2.977-2.163-5.877-6.1-8.167-4.371-2.54-10.244-3.939-16.539-3.939a33.75,33.75,0,0,0-16.592,3.942c-4,2.311-6.21,5.238-6.214,8.242,0,2.977,2.163,5.877,6.1,8.167,4.37,2.54,10.244,3.939,16.538,3.939Z" transform="translate(-1838.913 -1051.092)" fill="#c2cee4" opacity="0.742"/>
          <path id="Tracé_57" data-name="Tracé 57" d="M1863.69,1075.435a33.442,33.442,0,0,0,16.44-3.906c3.966-2.29,6.153-5.19,6.157-8.167,0-2.949-2.144-5.823-6.048-8.092-4.331-2.517-10.15-3.9-16.387-3.9a33.442,33.442,0,0,0-16.44,3.906c-3.966,2.29-6.153,5.19-6.157,8.167,0,2.949,2.144,5.823,6.048,8.092,4.33,2.516,10.15,3.9,16.386,3.9Z" transform="translate(-1839.155 -1051.12)" fill="#c0cce3" opacity="0.774"/>
          <path id="Tracé_58" data-name="Tracé 58" d="M1863.813,1075.251a33.135,33.135,0,0,0,16.288-3.87c3.929-2.269,6.1-5.142,6.1-8.091,0-2.922-2.123-5.769-5.992-8.017a36.114,36.114,0,0,0-32.522,0c-3.929,2.269-6.1,5.142-6.1,8.091,0,2.922,2.124,5.769,5.992,8.017a32.862,32.862,0,0,0,16.234,3.866Z" transform="translate(-1839.399 -1051.149)" fill="#bdcae2" opacity="0.806"/>
          <path id="Tracé_59" data-name="Tracé 59" d="M1863.936,1075.067a32.821,32.821,0,0,0,16.135-3.833c3.893-2.247,6.039-5.094,6.043-8.015,0-2.894-2.1-5.715-5.936-7.942a35.777,35.777,0,0,0-32.218,0c-3.892,2.247-6.038,5.094-6.043,8.015,0,2.895,2.1,5.715,5.936,7.942a32.556,32.556,0,0,0,16.082,3.83Z" transform="translate(-1839.642 -1051.178)" fill="#bac8e1" opacity="0.839"/>
          <path id="Tracé_60" data-name="Tracé 60" d="M1864.059,1074.883a32.513,32.513,0,0,0,15.983-3.8c3.856-2.226,5.981-5.046,5.986-7.939,0-2.867-2.084-5.661-5.88-7.867a35.439,35.439,0,0,0-31.914,0c-3.855,2.226-5.981,5.046-5.985,7.939,0,2.868,2.084,5.661,5.88,7.867a32.25,32.25,0,0,0,15.93,3.794Z" transform="translate(-1839.886 -1051.206)" fill="#b8c6e0" opacity="0.871"/>
          <path id="Tracé_61" data-name="Tracé 61" d="M1864.181,1074.7a32.2,32.2,0,0,0,15.83-3.761c3.819-2.2,5.925-5,5.929-7.864,0-2.84-2.064-5.607-5.823-7.792a35.1,35.1,0,0,0-31.609,0c-3.819,2.2-5.925,5-5.929,7.864,0,2.84,2.064,5.607,5.824,7.792a31.942,31.942,0,0,0,15.778,3.758Z" transform="translate(-1840.128 -1051.235)" fill="#b5c3de" opacity="0.903"/>
          <path id="Tracé_62" data-name="Tracé 62" d="M1864.3,1074.514a31.894,31.894,0,0,0,15.678-3.725c3.783-2.184,5.868-4.95,5.872-7.788,0-2.812-2.044-5.553-5.767-7.717a34.763,34.763,0,0,0-31.3,0c-3.782,2.184-5.867,4.95-5.872,7.788,0,2.813,2.044,5.553,5.768,7.717a31.633,31.633,0,0,0,15.626,3.722Z" transform="translate(-1840.372 -1051.264)" fill="#b2c1dd" opacity="0.935"/>
          <path id="Tracé_63" data-name="Tracé 63" d="M1864.427,1074.33a31.583,31.583,0,0,0,15.525-3.689c3.746-2.162,5.811-4.9,5.815-7.712,0-2.785-2.024-5.5-5.711-7.642a34.424,34.424,0,0,0-31,0c-3.745,2.162-5.81,4.9-5.814,7.712,0,2.785,2.025,5.5,5.711,7.642a31.327,31.327,0,0,0,15.475,3.685Z" transform="translate(-1840.615 -1051.292)" fill="#b0bfdc" opacity="0.968"/>
          <path id="Tracé_64" data-name="Tracé 64" d="M1864.55,1074.146a31.272,31.272,0,0,0,15.373-3.652c3.709-2.141,5.753-4.853,5.757-7.636,0-2.758-2-5.445-5.655-7.567a34.086,34.086,0,0,0-30.7,0c-3.708,2.141-5.753,4.853-5.757,7.636,0,2.758,2,5.445,5.655,7.567a31.018,31.018,0,0,0,15.323,3.649Z" transform="translate(-1840.859 -1051.321)" fill="#adbddb"/>
        </g>
        <g id="Coin_02" transform="translate(2.052)">
          <g id="Coin">
            <path id="Tracé_65" data-name="Tracé 65" d="M1856.3,1044.566c7.361-4.25,19.256-4.248,26.568,0s7.274,11.138-.086,15.387-19.256,4.252-26.569,0S1848.938,1048.818,1856.3,1044.566Z" transform="translate(-1848.193 -1039.896)" fill="#ebeef5"/>
            <path id="Tracé_66" data-name="Tracé 66" d="M1856.963,1060.292c-7.313-4.25-7.278-11.14.087-15.392,6.426-3.71,16.305-4.178,23.577-1.41-7.33-3.1-17.673-2.745-24.325,1.1-7.364,4.252-7.4,11.142-.087,15.392a20.42,20.42,0,0,0,2.991,1.412A19.962,19.962,0,0,1,1856.963,1060.292Z" transform="translate(-1848.193 -1039.915)" fill="#e6e9f0" style="mix-blend-mode: multiply;isolation: isolate"/>
            <path id="Tracé_67" data-name="Tracé 67" d="M1896.976,1060.987a8.331,8.331,0,0,1,1.992.846,4.269,4.269,0,0,1,1.726,1.626,2.5,2.5,0,0,1,.218,1.849,4.447,4.447,0,0,1-1.17,1.922,9.857,9.857,0,0,1-1.525,1.257l1.625.944-2.708,1.564-1.676-.974a15.435,15.435,0,0,1-5.406,1.423,12.479,12.479,0,0,1-6.681-1.406l3.26-1.883a6.9,6.9,0,0,0,1.913.6,7.872,7.872,0,0,0,1.989.057,9.252,9.252,0,0,0,2-.428l.069-.027-5.218-3.032c-.508.172-1.006.334-1.477.485a20.074,20.074,0,0,1-2.932.714,10.751,10.751,0,0,1-2.646.118,7.688,7.688,0,0,1-2.5-.663c-.217-.1-.43-.2-.639-.3a5.531,5.531,0,0,1-.6-.355,3.489,3.489,0,0,1-1.3-1.429,2.313,2.313,0,0,1-.085-1.645,4.41,4.41,0,0,1,1.112-1.75,8.356,8.356,0,0,1,1.11-.955l-1.954-1.136,2.708-1.563,1.964,1.142a15.732,15.732,0,0,1,1.721-.672,14.1,14.1,0,0,1,3.29-.661,11.978,11.978,0,0,1,3.158.159,10.254,10.254,0,0,1,2.886.991l-3.3,1.906a6.092,6.092,0,0,0-4.97-.1l4.666,2.711c.327-.118.65-.233.962-.346.741-.264,1.47-.5,2.192-.692a20.223,20.223,0,0,1,2.136-.464,10.36,10.36,0,0,1,2.073-.134A8.927,8.927,0,0,1,1896.976,1060.987Zm-.426,3.652a1.813,1.813,0,0,0-.779-.764,2.935,2.935,0,0,0-1.146-.376,5.3,5.3,0,0,0-1.41.036,11.908,11.908,0,0,0-1.76.413c-.214.065-.443.139-.682.214l4.651,2.7c.149-.115.291-.231.419-.346a2.833,2.833,0,0,0,.723-.982,1.122,1.122,0,0,0-.017-.9Zm-12.32-1.142-3.994-2.321-.069.065a2.453,2.453,0,0,0-.632.892,1.011,1.011,0,0,0,.017.8,1.525,1.525,0,0,0,.674.665,2.845,2.845,0,0,0,1.02.361,4.245,4.245,0,0,0,1.25-.036,12.77,12.77,0,0,0,1.633-.395l.1-.029Z" transform="translate(-1866.089 -1051.098)" fill="#31c7ed" style="mix-blend-mode: multiply;isolation: isolate"/>
            <path id="Tracé_68" data-name="Tracé 68" d="M1896.072,1059.314a8.319,8.319,0,0,1,1.992.846,4.267,4.267,0,0,1,1.726,1.627,2.5,2.5,0,0,1,.218,1.849,4.44,4.44,0,0,1-1.17,1.922,9.852,9.852,0,0,1-1.525,1.257l1.625.944-2.708,1.563-1.676-.974a15.454,15.454,0,0,1-5.406,1.423,12.479,12.479,0,0,1-6.681-1.406l3.261-1.882a6.894,6.894,0,0,0,1.913.6,7.859,7.859,0,0,0,1.989.057,9.251,9.251,0,0,0,2-.428l.069-.028-5.219-3.033c-.508.172-1.006.334-1.477.485a20.094,20.094,0,0,1-2.932.713,10.75,10.75,0,0,1-2.645.118,7.7,7.7,0,0,1-2.5-.663c-.217-.1-.43-.2-.639-.3a5.526,5.526,0,0,1-.6-.355,3.493,3.493,0,0,1-1.3-1.429,2.314,2.314,0,0,1-.085-1.645,4.411,4.411,0,0,1,1.111-1.75,8.415,8.415,0,0,1,1.11-.955l-1.954-1.135,2.708-1.564,1.965,1.142a15.822,15.822,0,0,1,1.721-.672,14.123,14.123,0,0,1,3.29-.661,11.97,11.97,0,0,1,3.159.16,10.264,10.264,0,0,1,2.885.991l-3.3,1.906a6.092,6.092,0,0,0-4.97-.1l4.666,2.711.962-.346c.74-.265,1.47-.5,2.192-.693a20.277,20.277,0,0,1,2.136-.464,10.371,10.371,0,0,1,2.073-.135A8.959,8.959,0,0,1,1896.072,1059.314Zm-.426,3.651a1.81,1.81,0,0,0-.778-.764,2.931,2.931,0,0,0-1.146-.376,5.3,5.3,0,0,0-1.41.036,11.875,11.875,0,0,0-1.76.413c-.214.065-.443.138-.682.214l4.651,2.7c.149-.116.291-.231.419-.346a2.837,2.837,0,0,0,.723-.982,1.121,1.121,0,0,0-.016-.9Zm-12.32-1.142-3.994-2.321-.069.065a2.453,2.453,0,0,0-.632.892,1.01,1.01,0,0,0,.017.8,1.526,1.526,0,0,0,.674.665,2.847,2.847,0,0,0,1.02.361,4.237,4.237,0,0,0,1.25-.036,12.725,12.725,0,0,0,1.633-.395l.1-.029Z" transform="translate(-1865.424 -1049.867)" fill="#81e5fe"/>
            <path id="Tracé_69" data-name="Tracé 69" d="M1883.772,1082.28l.01,3.713c.009,3.185-2.093,6.374-6.3,8.8-8.368,4.831-21.882,4.831-30.192,0-4.128-2.4-6.2-5.539-6.2-8.684l-.011-3.713c.009,3.145,2.077,6.285,6.2,8.684,8.31,4.829,21.825,4.829,30.192,0C1881.679,1088.654,1883.781,1085.465,1883.772,1082.28Z" transform="translate(-1841.073 -1069.975)" fill="url(#linear-gradient)"/>
            <path id="Tracé_70" data-name="Tracé 70" d="M1847.377,1039.392c8.364-4.829,21.882-4.827,30.192,0s8.266,12.657-.1,17.486-21.882,4.831-30.192,0S1839.009,1044.223,1847.377,1039.392Zm28.288,16.439c7.361-4.25,7.4-11.138.087-15.387s-19.208-4.252-26.569,0-7.4,11.142-.087,15.392,19.2,4.25,26.569,0Z" transform="translate(-1841.073 -1035.771)" fill="#f6f8fc"/>
          </g>
        </g>
      </g>
      <g id="Groupe_5" data-name="Groupe 5" transform="translate(4.614 10.363)">
        <g id="Groupe_4" data-name="Groupe 4" transform="translate(0 3.879)" style="mix-blend-mode: multiply;isolation: isolate">
          <path id="Tracé_71" data-name="Tracé 71" d="M1878.182,1055.327c7.627,0,14.765-1.7,20.1-4.775,4.849-2.8,7.522-6.345,7.527-9.984.005-3.606-2.62-7.119-7.393-9.893-5.294-3.077-12.409-4.771-20.033-4.771s-14.765,1.7-20.1,4.775c-4.849,2.8-7.522,6.345-7.527,9.984-.005,3.606,2.621,7.119,7.394,9.893,5.294,3.077,12.408,4.771,20.032,4.771Z" transform="translate(-1850.755 -1025.904)" fill="#fff" opacity="0"/>
          <path id="Tracé_72" data-name="Tracé 72" d="M1878.3,1055.142c7.569,0,14.653-1.683,19.946-4.739,4.812-2.778,7.465-6.3,7.47-9.908.005-3.578-2.6-7.065-7.337-9.817-5.254-3.053-12.315-4.735-19.881-4.735s-14.653,1.683-19.946,4.739c-4.812,2.778-7.465,6.3-7.47,9.908-.005,3.578,2.6,7.065,7.338,9.818,5.254,3.053,12.315,4.735,19.88,4.735Z" transform="translate(-1850.998 -1025.933)" fill="#fcfdfe" opacity="0.032"/>
          <path id="Tracé_73" data-name="Tracé 73" d="M1878.427,1054.958c7.512,0,14.541-1.67,19.793-4.7,4.775-2.757,7.408-6.249,7.413-9.832.005-3.551-2.581-7.011-7.281-9.742-5.214-3.03-12.221-4.7-19.729-4.7s-14.541,1.67-19.793,4.7c-4.775,2.757-7.408,6.249-7.413,9.833-.005,3.551,2.581,7.011,7.282,9.743,5.213,3.03,12.22,4.7,19.729,4.7Z" transform="translate(-1851.242 -1025.961)" fill="#fafbfd" opacity="0.065"/>
          <path id="Tracé_74" data-name="Tracé 74" d="M1878.55,1054.774c7.454,0,14.429-1.657,19.641-4.666,4.739-2.736,7.351-6.2,7.356-9.757,0-3.524-2.561-6.957-7.225-9.667-5.174-3.007-12.127-4.663-19.578-4.663s-14.429,1.657-19.641,4.667c-4.739,2.735-7.351,6.2-7.356,9.756,0,3.524,2.561,6.957,7.225,9.668,5.173,3.006,12.126,4.662,19.576,4.662Z" transform="translate(-1851.485 -1025.99)" fill="#f7f9fc" opacity="0.097"/>
          <path id="Tracé_75" data-name="Tracé 75" d="M1878.672,1054.59c7.4,0,14.317-1.645,19.489-4.63,4.7-2.714,7.294-6.153,7.3-9.681.005-3.5-2.541-6.9-7.169-9.593-5.134-2.983-12.032-4.626-19.426-4.626s-14.317,1.644-19.488,4.63c-4.7,2.714-7.294,6.152-7.3,9.681,0,3.5,2.542,6.9,7.17,9.593,5.133,2.983,12.032,4.626,19.425,4.626Z" transform="translate(-1851.728 -1026.019)" fill="#f4f6fa" opacity="0.129"/>
          <path id="Tracé_76" data-name="Tracé 76" d="M1878.8,1054.406c7.338,0,14.205-1.631,19.336-4.594,4.665-2.693,7.237-6.1,7.242-9.605,0-3.469-2.521-6.849-7.113-9.518-5.094-2.96-11.938-4.59-19.274-4.59s-14.2,1.631-19.336,4.594c-4.665,2.693-7.237,6.1-7.242,9.605,0,3.469,2.521,6.849,7.114,9.518,5.093,2.96,11.938,4.59,19.273,4.59Z" transform="translate(-1851.971 -1026.047)" fill="#f2f4f9" opacity="0.161"/>
          <path id="Tracé_77" data-name="Tracé 77" d="M1878.918,1054.222c7.281,0,14.093-1.619,19.184-4.558,4.628-2.672,7.18-6.056,7.185-9.529,0-3.441-2.5-6.795-7.057-9.442-5.053-2.937-11.844-4.554-19.122-4.554s-14.093,1.619-19.184,4.558c-4.628,2.672-7.18,6.056-7.185,9.529,0,3.442,2.5,6.8,7.057,9.443,5.052,2.937,11.844,4.554,19.121,4.554Z" transform="translate(-1852.215 -1026.076)" fill="#eff2f8" opacity="0.194"/>
          <path id="Tracé_78" data-name="Tracé 78" d="M1879.041,1054.038c7.223,0,13.981-1.606,19.031-4.521,4.591-2.651,7.123-6.008,7.128-9.454.005-3.414-2.481-6.741-7-9.367-5.013-2.914-11.75-4.518-18.97-4.518s-13.981,1.606-19.031,4.522c-4.592,2.651-7.123,6.008-7.127,9.454,0,3.414,2.482,6.741,7,9.368,5.013,2.913,11.75,4.517,18.969,4.517Z" transform="translate(-1852.458 -1026.105)" fill="#ecf0f7" opacity="0.226"/>
          <path id="Tracé_79" data-name="Tracé 79" d="M1879.163,1053.853c7.165,0,13.869-1.593,18.879-4.485,4.555-2.63,7.065-5.96,7.071-9.378,0-3.387-2.462-6.687-6.945-9.292-4.973-2.89-11.656-4.482-18.818-4.482s-13.869,1.593-18.879,4.485c-4.555,2.63-7.065,5.96-7.071,9.378,0,3.387,2.462,6.688,6.945,9.293,4.973,2.89,11.656,4.481,18.817,4.481Z" transform="translate(-1852.701 -1026.133)" fill="#eaeef6" opacity="0.258"/>
          <path id="Tracé_80" data-name="Tracé 80" d="M1879.286,1053.669c7.107,0,13.757-1.58,18.727-4.449,4.518-2.609,7.009-5.912,7.013-9.3.005-3.359-2.442-6.633-6.889-9.217-4.933-2.867-11.562-4.445-18.666-4.445s-13.757,1.58-18.726,4.449c-4.518,2.609-7.009,5.912-7.013,9.3,0,3.36,2.442,6.633,6.889,9.218,4.932,2.866,11.562,4.445,18.665,4.445Z" transform="translate(-1852.945 -1026.162)" fill="#e7ecf5" opacity="0.29"/>
          <path id="Tracé_81" data-name="Tracé 81" d="M1879.409,1053.485c7.049,0,13.645-1.567,18.574-4.413,4.481-2.587,6.951-5.864,6.956-9.227,0-3.332-2.422-6.579-6.833-9.142-4.893-2.843-11.468-4.409-18.514-4.409s-13.645,1.567-18.574,4.413c-4.481,2.587-6.951,5.864-6.956,9.227,0,3.332,2.422,6.579,6.833,9.143,4.892,2.843,11.468,4.409,18.513,4.409Z" transform="translate(-1853.188 -1026.191)" fill="#e5eaf3" opacity="0.323"/>
          <path id="Tracé_82" data-name="Tracé 82" d="M1879.532,1053.3c6.991,0,13.533-1.554,18.422-4.377,4.444-2.566,6.895-5.816,6.9-9.151,0-3.3-2.4-6.525-6.777-9.067-4.853-2.82-11.374-4.373-18.362-4.373s-13.533,1.554-18.422,4.377c-4.444,2.566-6.894,5.816-6.9,9.151,0,3.305,2.4,6.525,6.777,9.068,4.852,2.82,11.373,4.373,18.361,4.373Z" transform="translate(-1853.431 -1026.22)" fill="#e2e8f2" opacity="0.355"/>
          <path id="Tracé_83" data-name="Tracé 83" d="M1879.655,1053.117c6.933,0,13.421-1.542,18.269-4.34,4.407-2.545,6.837-5.768,6.842-9.075,0-3.277-2.382-6.471-6.72-8.992-4.812-2.8-11.28-4.337-18.21-4.337s-13.421,1.541-18.269,4.341c-4.408,2.544-6.838,5.768-6.842,9.075,0,3.278,2.382,6.471,6.721,8.993,4.812,2.8,11.279,4.336,18.209,4.336Z" transform="translate(-1853.675 -1026.248)" fill="#dfe5f1" opacity="0.387"/>
          <path id="Tracé_84" data-name="Tracé 84" d="M1879.777,1052.933c6.875,0,13.309-1.529,18.117-4.3,4.371-2.523,6.78-5.719,6.785-9,0-3.25-2.362-6.417-6.664-8.917-4.772-2.773-11.186-4.3-18.058-4.3s-13.309,1.529-18.116,4.3c-4.371,2.523-6.781,5.719-6.785,9,0,3.25,2.363,6.417,6.665,8.918,4.772,2.773,11.185,4.3,18.057,4.3Z" transform="translate(-1853.917 -1026.277)" fill="#dde3f0" opacity="0.419"/>
          <path id="Tracé_85" data-name="Tracé 85" d="M1879.9,1052.748c6.818,0,13.2-1.516,17.965-4.268,4.334-2.5,6.723-5.671,6.728-8.924,0-3.223-2.342-6.363-6.609-8.842-4.732-2.75-11.091-4.265-17.906-4.265s-13.2,1.516-17.964,4.268c-4.334,2.5-6.723,5.671-6.728,8.924,0,3.223,2.343,6.363,6.609,8.842,4.731,2.75,11.091,4.264,17.905,4.264Z" transform="translate(-1854.161 -1026.306)" fill="#dae1ef" opacity="0.452"/>
          <path id="Tracé_86" data-name="Tracé 86" d="M1880.023,1052.564c6.76,0,13.085-1.5,17.812-4.232,4.3-2.481,6.666-5.623,6.671-8.848,0-3.2-2.322-6.309-6.552-8.767-4.692-2.727-11-4.228-17.754-4.228s-13.085,1.5-17.812,4.232c-4.3,2.481-6.666,5.623-6.671,8.848,0,3.2,2.323,6.309,6.553,8.767,4.691,2.726,11,4.228,17.753,4.228Z" transform="translate(-1854.404 -1026.334)" fill="#d7dfee" opacity="0.484"/>
          <path id="Tracé_87" data-name="Tracé 87" d="M1880.146,1052.38c6.7,0,12.974-1.49,17.66-4.2,4.261-2.46,6.609-5.575,6.614-8.772,0-3.168-2.3-6.255-6.5-8.692-4.652-2.7-10.9-4.192-17.6-4.192s-12.973,1.49-17.66,4.2c-4.26,2.46-6.609,5.575-6.614,8.772,0,3.168,2.3,6.255,6.5,8.692,4.651,2.7,10.9,4.192,17.6,4.192Z" transform="translate(-1854.647 -1026.363)" fill="#d5ddec" opacity="0.516"/>
          <path id="Tracé_88" data-name="Tracé 88" d="M1880.269,1052.2c6.644,0,12.861-1.477,17.507-4.159,4.224-2.438,6.552-5.527,6.557-8.7,0-3.141-2.283-6.2-6.44-8.617-4.612-2.68-10.809-4.156-17.45-4.156s-12.861,1.477-17.507,4.159c-4.224,2.439-6.552,5.527-6.556,8.7,0,3.141,2.282,6.2,6.44,8.617,4.611,2.68,10.809,4.156,17.45,4.156Z" transform="translate(-1854.891 -1026.392)" fill="#d2dbeb" opacity="0.548"/>
          <path id="Tracé_89" data-name="Tracé 89" d="M1880.391,1052.012c6.586,0,12.75-1.464,17.355-4.123,4.187-2.417,6.5-5.479,6.5-8.621,0-3.113-2.263-6.147-6.384-8.542-4.572-2.657-10.715-4.12-17.3-4.12s-12.749,1.464-17.354,4.123c-4.187,2.417-6.5,5.479-6.5,8.621,0,3.114,2.263,6.147,6.385,8.542,4.571,2.656,10.715,4.119,17.3,4.119Z" transform="translate(-1855.134 -1026.42)" fill="#cfd9ea" opacity="0.581"/>
          <path id="Tracé_90" data-name="Tracé 90" d="M1880.514,1051.828c6.528,0,12.638-1.452,17.2-4.087,4.15-2.4,6.438-5.431,6.443-8.545,0-3.086-2.243-6.093-6.328-8.467-4.531-2.633-10.621-4.084-17.146-4.084s-12.637,1.451-17.2,4.087c-4.15,2.4-6.438,5.43-6.443,8.545,0,3.086,2.243,6.093,6.328,8.467,4.531,2.633,10.62,4.083,17.146,4.083Z" transform="translate(-1855.377 -1026.449)" fill="#cdd7e9" opacity="0.613"/>
          <path id="Tracé_91" data-name="Tracé 91" d="M1880.637,1051.644c6.47,0,12.525-1.438,17.05-4.051,4.113-2.375,6.381-5.383,6.386-8.469,0-3.059-2.223-6.039-6.272-8.392-4.491-2.61-10.527-4.047-16.995-4.047s-12.525,1.438-17.05,4.051c-4.114,2.375-6.381,5.383-6.385,8.469,0,3.059,2.223,6.039,6.272,8.392,4.491,2.61,10.526,4.047,16.994,4.047Z" transform="translate(-1855.62 -1026.478)" fill="#cad4e8" opacity="0.645"/>
          <path id="Tracé_92" data-name="Tracé 92" d="M1880.76,1051.46c6.413,0,12.413-1.426,16.9-4.015,4.077-2.354,6.324-5.334,6.328-8.394,0-3.031-2.2-5.985-6.216-8.317-4.451-2.587-10.433-4.011-16.843-4.011s-12.413,1.426-16.9,4.015c-4.077,2.353-6.324,5.334-6.328,8.393,0,3.031,2.2,5.986,6.216,8.318,4.45,2.586,10.432,4.011,16.842,4.011Z" transform="translate(-1855.864 -1026.506)" fill="#c7d2e7" opacity="0.677"/>
          <path id="Tracé_93" data-name="Tracé 93" d="M1880.883,1051.275a34.062,34.062,0,0,0,16.745-3.978c4.04-2.332,6.267-5.286,6.271-8.318,0-3-2.183-5.931-6.16-8.242-4.411-2.563-10.338-3.975-16.691-3.975a34.062,34.062,0,0,0-16.745,3.978c-4.04,2.332-6.267,5.286-6.271,8.318,0,3,2.184,5.932,6.16,8.242,4.41,2.563,10.338,3.975,16.69,3.975Z" transform="translate(-1856.107 -1026.535)" fill="#c5d0e5" opacity="0.71"/>
          <path id="Tracé_94" data-name="Tracé 94" d="M1881.005,1051.091a33.753,33.753,0,0,0,16.593-3.942c4-2.311,6.21-5.238,6.214-8.242,0-2.976-2.163-5.877-6.1-8.167-4.371-2.54-10.244-3.939-16.539-3.939a33.753,33.753,0,0,0-16.593,3.942c-4,2.311-6.21,5.238-6.214,8.242,0,2.977,2.164,5.877,6.1,8.167,4.37,2.54,10.244,3.939,16.538,3.939Z" transform="translate(-1856.35 -1026.564)" fill="#c2cee4" opacity="0.742"/>
          <path id="Tracé_95" data-name="Tracé 95" d="M1881.128,1050.907a33.444,33.444,0,0,0,16.44-3.906c3.967-2.29,6.153-5.19,6.157-8.167,0-2.949-2.144-5.823-6.048-8.092-4.331-2.517-10.15-3.9-16.387-3.9a33.443,33.443,0,0,0-16.44,3.906c-3.966,2.29-6.153,5.19-6.157,8.167,0,2.949,2.144,5.823,6.048,8.092,4.33,2.516,10.15,3.9,16.386,3.9Z" transform="translate(-1856.593 -1026.592)" fill="#c0cce3" opacity="0.774"/>
          <path id="Tracé_96" data-name="Tracé 96" d="M1881.251,1050.723a33.133,33.133,0,0,0,16.288-3.87c3.929-2.269,6.1-5.142,6.1-8.091,0-2.922-2.124-5.769-5.992-8.017a36.115,36.115,0,0,0-32.522,0c-3.929,2.269-6.1,5.142-6.1,8.091,0,2.922,2.124,5.769,5.992,8.017a32.862,32.862,0,0,0,16.234,3.866Z" transform="translate(-1856.837 -1026.621)" fill="#bdcae2" opacity="0.806"/>
          <path id="Tracé_97" data-name="Tracé 97" d="M1881.374,1050.539a32.824,32.824,0,0,0,16.135-3.834c3.893-2.247,6.039-5.094,6.043-8.015,0-2.894-2.1-5.715-5.936-7.942a35.777,35.777,0,0,0-32.218,0c-3.892,2.248-6.039,5.094-6.043,8.015,0,2.895,2.1,5.715,5.936,7.942a32.556,32.556,0,0,0,16.082,3.83Z" transform="translate(-1857.08 -1026.65)" fill="#bac8e1" opacity="0.839"/>
          <path id="Tracé_98" data-name="Tracé 98" d="M1881.5,1050.355a32.512,32.512,0,0,0,15.983-3.8c3.856-2.226,5.982-5.046,5.986-7.939,0-2.867-2.084-5.661-5.88-7.867a35.437,35.437,0,0,0-31.914,0c-3.856,2.226-5.982,5.046-5.985,7.939,0,2.867,2.084,5.661,5.88,7.867a32.25,32.25,0,0,0,15.93,3.794Z" transform="translate(-1857.324 -1026.678)" fill="#b8c6e0" opacity="0.871"/>
          <path id="Tracé_99" data-name="Tracé 99" d="M1881.619,1050.171a32.2,32.2,0,0,0,15.831-3.761c3.819-2.2,5.925-5,5.928-7.864,0-2.84-2.064-5.607-5.823-7.792a35.1,35.1,0,0,0-31.609,0c-3.819,2.2-5.924,5-5.929,7.864,0,2.84,2.064,5.607,5.824,7.792a31.941,31.941,0,0,0,15.778,3.758Z" transform="translate(-1857.566 -1026.707)" fill="#b5c3de" opacity="0.903"/>
          <path id="Tracé_100" data-name="Tracé 100" d="M1881.742,1049.986a31.893,31.893,0,0,0,15.678-3.725c3.782-2.184,5.868-4.95,5.872-7.788,0-2.812-2.044-5.553-5.767-7.717a34.762,34.762,0,0,0-31.305,0c-3.782,2.183-5.868,4.949-5.871,7.788,0,2.813,2.044,5.553,5.767,7.717a31.633,31.633,0,0,0,15.626,3.722Z" transform="translate(-1857.81 -1026.736)" fill="#b2c1dd" opacity="0.935"/>
          <path id="Tracé_101" data-name="Tracé 101" d="M1881.865,1049.8a31.58,31.58,0,0,0,15.526-3.689c3.746-2.162,5.81-4.9,5.815-7.712,0-2.785-2.024-5.5-5.711-7.642a34.424,34.424,0,0,0-31,0c-3.745,2.162-5.81,4.9-5.814,7.712,0,2.786,2.025,5.5,5.711,7.642a31.326,31.326,0,0,0,15.474,3.685Z" transform="translate(-1858.053 -1026.764)" fill="#b0bfdc" opacity="0.968"/>
          <path id="Tracé_102" data-name="Tracé 102" d="M1881.988,1049.618a31.271,31.271,0,0,0,15.373-3.652c3.709-2.141,5.754-4.853,5.757-7.636,0-2.758-2-5.445-5.655-7.567a34.086,34.086,0,0,0-30.7,0c-3.708,2.141-5.753,4.853-5.757,7.636,0,2.758,2,5.445,5.655,7.567a31.018,31.018,0,0,0,15.323,3.649Z" transform="translate(-1858.297 -1026.793)" fill="#adbddb"/>
        </g>
        <g id="Coin_02-2" data-name="Coin_02" transform="translate(2.052)">
          <g id="Coin-2" data-name="Coin">
            <path id="Tracé_103" data-name="Tracé 103" d="M1873.74,1020.038c7.361-4.25,19.256-4.248,26.569,0s7.274,11.138-.086,15.388-19.256,4.252-26.569,0S1866.376,1024.29,1873.74,1020.038Z" transform="translate(-1865.631 -1015.368)" fill="#ebeef5"/>
            <path id="Tracé_104" data-name="Tracé 104" d="M1874.4,1035.764c-7.313-4.25-7.278-11.14.086-15.392,6.426-3.71,16.306-4.178,23.578-1.41-7.33-3.1-17.673-2.745-24.325,1.1-7.364,4.252-7.4,11.142-.087,15.392a20.377,20.377,0,0,0,2.991,1.412A19.921,19.921,0,0,1,1874.4,1035.764Z" transform="translate(-1865.631 -1015.388)" fill="#e6e9f0" style="mix-blend-mode: multiply;isolation: isolate"/>
            <path id="Tracé_105" data-name="Tracé 105" d="M1914.414,1036.459a8.308,8.308,0,0,1,1.992.846,4.27,4.27,0,0,1,1.726,1.626,2.494,2.494,0,0,1,.218,1.849,4.443,4.443,0,0,1-1.17,1.922,9.841,9.841,0,0,1-1.525,1.257l1.625.944-2.708,1.564-1.676-.974a15.448,15.448,0,0,1-5.407,1.423,12.48,12.48,0,0,1-6.681-1.406l3.261-1.882a6.893,6.893,0,0,0,1.913.6,7.855,7.855,0,0,0,1.989.057,9.251,9.251,0,0,0,2-.428l.069-.027-5.218-3.033c-.508.172-1.006.334-1.477.485a20.091,20.091,0,0,1-2.932.713,10.755,10.755,0,0,1-2.645.118,7.687,7.687,0,0,1-2.5-.663c-.217-.1-.43-.2-.64-.3a5.5,5.5,0,0,1-.6-.355,3.492,3.492,0,0,1-1.3-1.429,2.314,2.314,0,0,1-.085-1.646,4.417,4.417,0,0,1,1.111-1.75,8.358,8.358,0,0,1,1.111-.955l-1.954-1.136,2.708-1.563,1.965,1.142a15.828,15.828,0,0,1,1.721-.672,14.11,14.11,0,0,1,3.29-.661,11.963,11.963,0,0,1,3.159.16,10.257,10.257,0,0,1,2.886.99l-3.3,1.906a6.092,6.092,0,0,0-4.97-.1l4.666,2.711c.327-.117.65-.233.962-.346.74-.265,1.47-.5,2.192-.693a20.252,20.252,0,0,1,2.136-.464,10.38,10.38,0,0,1,2.073-.134A8.935,8.935,0,0,1,1914.414,1036.459Zm-.426,3.651a1.812,1.812,0,0,0-.778-.764,2.935,2.935,0,0,0-1.146-.376,5.3,5.3,0,0,0-1.41.036,11.932,11.932,0,0,0-1.76.413c-.214.065-.443.139-.682.214l4.651,2.7c.149-.115.291-.231.419-.346a2.836,2.836,0,0,0,.723-.982,1.121,1.121,0,0,0-.017-.9Zm-12.32-1.142-3.994-2.321-.069.065a2.452,2.452,0,0,0-.632.892,1.011,1.011,0,0,0,.017.8,1.526,1.526,0,0,0,.674.665,2.848,2.848,0,0,0,1.02.361,4.252,4.252,0,0,0,1.25-.036,12.759,12.759,0,0,0,1.633-.395l.1-.029Z" transform="translate(-1883.527 -1026.57)" fill="#31c7ed" style="mix-blend-mode: multiply;isolation: isolate"/>
            <path id="Tracé_106" data-name="Tracé 106" d="M1913.51,1034.786a8.324,8.324,0,0,1,1.991.846,4.267,4.267,0,0,1,1.726,1.626,2.5,2.5,0,0,1,.218,1.849,4.444,4.444,0,0,1-1.17,1.922,9.834,9.834,0,0,1-1.525,1.257l1.625.945-2.708,1.563-1.676-.974a15.45,15.45,0,0,1-5.406,1.423,12.479,12.479,0,0,1-6.681-1.406l3.261-1.882a6.9,6.9,0,0,0,1.913.6,7.869,7.869,0,0,0,1.989.057,9.244,9.244,0,0,0,2-.428l.069-.027-5.219-3.033c-.508.172-1.006.334-1.477.485a20.072,20.072,0,0,1-2.932.713,10.75,10.75,0,0,1-2.646.118,7.694,7.694,0,0,1-2.5-.663c-.217-.1-.43-.2-.64-.3a5.532,5.532,0,0,1-.6-.355,3.492,3.492,0,0,1-1.3-1.429,2.315,2.315,0,0,1-.085-1.645,4.415,4.415,0,0,1,1.111-1.75,8.408,8.408,0,0,1,1.11-.955L1892,1032.2l2.708-1.564,1.965,1.142a15.828,15.828,0,0,1,1.721-.672,14.127,14.127,0,0,1,3.29-.661,11.991,11.991,0,0,1,3.159.16,10.27,10.27,0,0,1,2.885.99l-3.3,1.906a6.094,6.094,0,0,0-4.97-.1l4.666,2.712.962-.346c.74-.264,1.47-.5,2.192-.693a20.338,20.338,0,0,1,2.136-.464,10.352,10.352,0,0,1,2.073-.134A8.938,8.938,0,0,1,1913.51,1034.786Zm-.427,3.652a1.812,1.812,0,0,0-.778-.764,2.932,2.932,0,0,0-1.146-.375,5.288,5.288,0,0,0-1.41.035,11.872,11.872,0,0,0-1.759.414c-.214.065-.443.138-.682.214l4.651,2.7c.149-.116.291-.231.419-.346a2.832,2.832,0,0,0,.723-.982,1.12,1.12,0,0,0-.017-.9Zm-12.32-1.142-3.994-2.321-.069.065a2.459,2.459,0,0,0-.632.892,1.011,1.011,0,0,0,.017.8,1.524,1.524,0,0,0,.674.665,2.844,2.844,0,0,0,1.02.361,4.249,4.249,0,0,0,1.25-.036,12.842,12.842,0,0,0,1.633-.394l.1-.03Z" transform="translate(-1882.862 -1025.339)" fill="#81e5fe"/>
            <path id="Tracé_107" data-name="Tracé 107" d="M1901.21,1057.752l.011,3.713c.009,3.185-2.093,6.374-6.3,8.8-8.368,4.831-21.882,4.831-30.192,0-4.129-2.4-6.2-5.539-6.2-8.685l-.011-3.713c.009,3.145,2.076,6.285,6.2,8.684,8.31,4.829,21.824,4.829,30.192,0C1899.117,1064.126,1901.219,1060.937,1901.21,1057.752Z" transform="translate(-1858.511 -1045.447)" fill="url(#linear-gradient)"/>
            <path id="Tracé_108" data-name="Tracé 108" d="M1864.815,1014.864c8.364-4.829,21.882-4.827,30.192,0s8.266,12.657-.1,17.486-21.882,4.831-30.192,0S1856.447,1019.7,1864.815,1014.864ZM1893.1,1031.3c7.361-4.25,7.4-11.138.087-15.388s-19.208-4.252-26.569,0-7.4,11.142-.087,15.391,19.2,4.25,26.569,0Z" transform="translate(-1858.511 -1011.244)" fill="#f6f8fc"/>
          </g>
        </g>
      </g>
      <g id="Groupe_7" data-name="Groupe 7" transform="translate(0 6.63)">
        <g id="Groupe_6" data-name="Groupe 6" transform="translate(0 3.879)" style="mix-blend-mode: multiply;isolation: isolate">
          <path id="Tracé_109" data-name="Tracé 109" d="M1860.744,1041.217c7.627,0,14.765-1.7,20.1-4.775,4.849-2.8,7.522-6.345,7.527-9.984.005-3.606-2.62-7.119-7.393-9.893-5.294-3.077-12.409-4.771-20.033-4.771s-14.765,1.7-20.1,4.775c-4.849,2.8-7.522,6.345-7.527,9.984,0,3.606,2.621,7.119,7.394,9.893,5.294,3.077,12.409,4.771,20.032,4.771Z" transform="translate(-1833.317 -1011.794)" fill="#fff" opacity="0"/>
          <path id="Tracé_110" data-name="Tracé 110" d="M1860.866,1041.032c7.57,0,14.653-1.683,19.946-4.739,4.812-2.778,7.465-6.3,7.47-9.908.005-3.578-2.6-7.065-7.337-9.818-5.254-3.053-12.315-4.735-19.881-4.735s-14.653,1.683-19.946,4.739c-4.812,2.778-7.465,6.3-7.47,9.908-.005,3.578,2.6,7.065,7.338,9.818,5.253,3.053,12.314,4.735,19.88,4.735Z" transform="translate(-1833.56 -1011.823)" fill="#fcfdfe" opacity="0.032"/>
          <path id="Tracé_111" data-name="Tracé 111" d="M1860.99,1040.848c7.511,0,14.541-1.67,19.794-4.7,4.775-2.757,7.408-6.249,7.413-9.833.005-3.551-2.581-7.011-7.281-9.742-5.214-3.03-12.221-4.7-19.73-4.7s-14.541,1.67-19.793,4.7c-4.775,2.757-7.408,6.249-7.413,9.832,0,3.551,2.581,7.011,7.282,9.743,5.213,3.03,12.22,4.7,19.729,4.7Z" transform="translate(-1833.804 -1011.851)" fill="#fafbfd" opacity="0.065"/>
          <path id="Tracé_112" data-name="Tracé 112" d="M1861.113,1040.664c7.454,0,14.429-1.657,19.641-4.667,4.739-2.736,7.351-6.2,7.356-9.757.005-3.524-2.561-6.957-7.225-9.667-5.174-3.007-12.127-4.663-19.578-4.663s-14.429,1.657-19.641,4.666c-4.739,2.736-7.351,6.2-7.356,9.757-.005,3.524,2.561,6.957,7.226,9.668,5.173,3.006,12.126,4.662,19.576,4.662Z" transform="translate(-1834.047 -1011.88)" fill="#f7f9fc" opacity="0.097"/>
          <path id="Tracé_113" data-name="Tracé 113" d="M1861.234,1040.48c7.4,0,14.317-1.644,19.489-4.63,4.7-2.715,7.294-6.153,7.3-9.681.005-3.5-2.541-6.9-7.169-9.593-5.134-2.983-12.033-4.626-19.426-4.626s-14.317,1.644-19.488,4.63c-4.7,2.715-7.294,6.153-7.3,9.681,0,3.5,2.542,6.9,7.17,9.593,5.133,2.983,12.032,4.626,19.425,4.626Z" transform="translate(-1834.29 -1011.909)" fill="#f4f6fa" opacity="0.129"/>
          <path id="Tracé_114" data-name="Tracé 114" d="M1861.357,1040.3c7.338,0,14.205-1.632,19.336-4.594,4.665-2.693,7.237-6.1,7.242-9.605,0-3.469-2.521-6.849-7.113-9.517-5.094-2.96-11.938-4.59-19.273-4.59s-14.2,1.631-19.336,4.594c-4.665,2.693-7.237,6.1-7.242,9.6,0,3.469,2.521,6.849,7.113,9.518,5.093,2.959,11.938,4.59,19.273,4.59Z" transform="translate(-1834.533 -1011.937)" fill="#f2f4f9" opacity="0.161"/>
          <path id="Tracé_115" data-name="Tracé 115" d="M1861.48,1040.112c7.28,0,14.093-1.619,19.184-4.558,4.628-2.672,7.18-6.056,7.185-9.529.005-3.442-2.5-6.795-7.057-9.443-5.053-2.936-11.845-4.554-19.122-4.554s-14.093,1.619-19.184,4.558c-4.628,2.672-7.18,6.056-7.185,9.529,0,3.442,2.5,6.8,7.057,9.443,5.053,2.937,11.844,4.554,19.121,4.554Z" transform="translate(-1834.777 -1011.966)" fill="#eff2f8" opacity="0.194"/>
          <path id="Tracé_116" data-name="Tracé 116" d="M1861.6,1039.927c7.222,0,13.981-1.606,19.031-4.522,4.592-2.651,7.123-6.008,7.128-9.454.005-3.414-2.482-6.741-7-9.367-5.013-2.914-11.75-4.518-18.97-4.518s-13.981,1.606-19.031,4.522c-4.592,2.651-7.123,6.008-7.127,9.454,0,3.414,2.482,6.741,7,9.368,5.013,2.913,11.75,4.517,18.969,4.517Z" transform="translate(-1835.02 -1011.995)" fill="#ecf0f7" opacity="0.226"/>
          <path id="Tracé_117" data-name="Tracé 117" d="M1861.726,1039.743c7.165,0,13.869-1.593,18.879-4.485,4.555-2.63,7.066-5.96,7.071-9.378,0-3.387-2.462-6.687-6.945-9.292-4.973-2.89-11.656-4.482-18.818-4.482s-13.869,1.593-18.879,4.485c-4.555,2.63-7.066,5.96-7.07,9.378,0,3.387,2.462,6.687,6.945,9.293,4.972,2.89,11.656,4.481,18.817,4.481Z" transform="translate(-1835.264 -1012.023)" fill="#eaeef6" opacity="0.258"/>
          <path id="Tracé_118" data-name="Tracé 118" d="M1861.848,1039.559c7.107,0,13.757-1.58,18.726-4.449,4.518-2.608,7.009-5.912,7.013-9.3.005-3.36-2.441-6.633-6.889-9.217-4.933-2.867-11.562-4.445-18.666-4.445s-13.757,1.58-18.726,4.449c-4.518,2.608-7.008,5.912-7.013,9.3,0,3.36,2.442,6.633,6.889,9.218,4.932,2.866,11.562,4.445,18.665,4.445Z" transform="translate(-1835.506 -1012.052)" fill="#e7ecf5" opacity="0.29"/>
          <path id="Tracé_119" data-name="Tracé 119" d="M1861.971,1039.375c7.049,0,13.645-1.567,18.574-4.413,4.481-2.587,6.951-5.864,6.956-9.227,0-3.332-2.422-6.579-6.833-9.142-4.893-2.843-11.468-4.409-18.514-4.409s-13.645,1.567-18.574,4.413c-4.481,2.587-6.952,5.864-6.956,9.227,0,3.332,2.422,6.579,6.833,9.143,4.892,2.843,11.467,4.409,18.513,4.409Z" transform="translate(-1835.75 -1012.081)" fill="#e5eaf3" opacity="0.323"/>
          <path id="Tracé_120" data-name="Tracé 120" d="M1862.094,1039.191c6.991,0,13.533-1.554,18.422-4.377,4.444-2.566,6.895-5.816,6.9-9.151,0-3.3-2.4-6.525-6.777-9.067-4.853-2.82-11.374-4.373-18.362-4.373s-13.533,1.554-18.422,4.377c-4.444,2.566-6.894,5.816-6.9,9.151,0,3.3,2.4,6.525,6.777,9.068,4.852,2.82,11.373,4.373,18.361,4.373Z" transform="translate(-1835.993 -1012.109)" fill="#e2e8f2" opacity="0.355"/>
          <path id="Tracé_121" data-name="Tracé 121" d="M1862.217,1039.007c6.933,0,13.421-1.542,18.269-4.341,4.407-2.545,6.837-5.768,6.842-9.075,0-3.278-2.382-6.471-6.72-8.992-4.812-2.8-11.28-4.337-18.21-4.337s-13.421,1.541-18.269,4.34c-4.407,2.545-6.837,5.768-6.842,9.075,0,3.278,2.382,6.471,6.721,8.992,4.812,2.8,11.279,4.337,18.209,4.337Z" transform="translate(-1836.237 -1012.138)" fill="#dfe5f1" opacity="0.387"/>
          <path id="Tracé_122" data-name="Tracé 122" d="M1862.34,1038.823c6.875,0,13.309-1.529,18.117-4.3,4.371-2.524,6.78-5.72,6.785-9,0-3.25-2.362-6.417-6.664-8.917-4.772-2.773-11.186-4.3-18.058-4.3s-13.309,1.528-18.117,4.3c-4.371,2.523-6.78,5.719-6.785,9,0,3.25,2.362,6.417,6.665,8.918,4.772,2.773,11.185,4.3,18.057,4.3Z" transform="translate(-1836.48 -1012.167)" fill="#dde3f0" opacity="0.419"/>
          <path id="Tracé_123" data-name="Tracé 123" d="M1862.462,1038.638c6.818,0,13.2-1.516,17.965-4.268,4.334-2.5,6.723-5.671,6.728-8.924,0-3.223-2.342-6.363-6.608-8.842-4.732-2.75-11.092-4.264-17.906-4.264s-13.2,1.516-17.964,4.268c-4.334,2.5-6.723,5.671-6.728,8.924,0,3.223,2.343,6.363,6.609,8.842,4.731,2.75,11.091,4.264,17.905,4.264Z" transform="translate(-1836.723 -1012.195)" fill="#dae1ef" opacity="0.452"/>
          <path id="Tracé_124" data-name="Tracé 124" d="M1862.585,1038.454c6.76,0,13.085-1.5,17.812-4.232,4.3-2.481,6.667-5.623,6.671-8.848,0-3.2-2.323-6.309-6.552-8.767-4.692-2.727-11-4.228-17.754-4.228s-13.085,1.5-17.812,4.232c-4.3,2.481-6.666,5.623-6.671,8.848,0,3.2,2.323,6.309,6.553,8.767,4.691,2.726,11,4.228,17.753,4.228Z" transform="translate(-1836.966 -1012.224)" fill="#d7dfee" opacity="0.484"/>
          <path id="Tracé_125" data-name="Tracé 125" d="M1862.708,1038.27c6.7,0,12.973-1.49,17.66-4.2,4.26-2.46,6.609-5.575,6.614-8.772,0-3.168-2.3-6.255-6.5-8.692-4.652-2.7-10.9-4.192-17.6-4.192s-12.973,1.49-17.66,4.2c-4.26,2.46-6.609,5.575-6.614,8.772,0,3.168,2.3,6.255,6.5,8.692,4.651,2.7,10.9,4.192,17.6,4.192Z" transform="translate(-1837.21 -1012.253)" fill="#d5ddec" opacity="0.516"/>
          <path id="Tracé_126" data-name="Tracé 126" d="M1862.831,1038.086c6.644,0,12.861-1.477,17.507-4.159,4.224-2.439,6.552-5.527,6.557-8.7,0-3.141-2.283-6.2-6.44-8.617-4.612-2.68-10.809-4.156-17.45-4.156s-12.861,1.477-17.507,4.159c-4.224,2.438-6.552,5.527-6.557,8.7,0,3.141,2.283,6.2,6.44,8.618,4.611,2.68,10.809,4.156,17.45,4.156Z" transform="translate(-1837.453 -1012.282)" fill="#d2dbeb" opacity="0.548"/>
          <path id="Tracé_127" data-name="Tracé 127" d="M1862.954,1037.9c6.586,0,12.749-1.464,17.355-4.123,4.187-2.417,6.5-5.479,6.5-8.621,0-3.114-2.263-6.147-6.384-8.542-4.572-2.657-10.715-4.12-17.3-4.12s-12.749,1.464-17.354,4.123c-4.187,2.417-6.5,5.479-6.5,8.621,0,3.114,2.263,6.147,6.384,8.542,4.571,2.657,10.715,4.12,17.3,4.12Z" transform="translate(-1837.696 -1012.31)" fill="#cfd9ea" opacity="0.581"/>
          <path id="Tracé_128" data-name="Tracé 128" d="M1863.076,1037.718c6.528,0,12.637-1.451,17.2-4.087,4.15-2.4,6.438-5.431,6.442-8.545,0-3.086-2.243-6.093-6.328-8.467-4.531-2.634-10.621-4.084-17.147-4.084s-12.637,1.451-17.2,4.087c-4.15,2.4-6.438,5.431-6.442,8.545,0,3.086,2.243,6.094,6.328,8.468,4.531,2.633,10.62,4.083,17.146,4.083Z" transform="translate(-1837.939 -1012.339)" fill="#cdd7e9" opacity="0.613"/>
          <path id="Tracé_129" data-name="Tracé 129" d="M1863.2,1037.534c6.47,0,12.525-1.439,17.05-4.051,4.114-2.375,6.381-5.383,6.385-8.469,0-3.058-2.223-6.039-6.272-8.392-4.491-2.61-10.527-4.047-16.994-4.047s-12.525,1.438-17.05,4.051c-4.113,2.375-6.381,5.383-6.385,8.469,0,3.059,2.224,6.04,6.272,8.392,4.491,2.61,10.526,4.047,16.994,4.047Z" transform="translate(-1838.182 -1012.368)" fill="#cad4e8" opacity="0.645"/>
          <path id="Tracé_130" data-name="Tracé 130" d="M1863.322,1037.349c6.413,0,12.413-1.426,16.9-4.014,4.077-2.354,6.324-5.335,6.328-8.394,0-3.031-2.2-5.985-6.216-8.317-4.451-2.587-10.433-4.011-16.843-4.011s-12.413,1.426-16.9,4.015c-4.076,2.353-6.324,5.334-6.328,8.393,0,3.031,2.2,5.985,6.216,8.317,4.45,2.587,10.432,4.011,16.842,4.011Z" transform="translate(-1838.426 -1012.396)" fill="#c7d2e7" opacity="0.677"/>
          <path id="Tracé_131" data-name="Tracé 131" d="M1863.445,1037.165a34.061,34.061,0,0,0,16.745-3.978c4.04-2.332,6.267-5.286,6.271-8.318,0-3-2.183-5.931-6.16-8.242-4.411-2.563-10.338-3.975-16.691-3.975a34.061,34.061,0,0,0-16.745,3.978c-4.039,2.332-6.267,5.286-6.271,8.318,0,3,2.183,5.931,6.16,8.242,4.41,2.563,10.338,3.975,16.69,3.975Z" transform="translate(-1838.669 -1012.425)" fill="#c5d0e5" opacity="0.71"/>
          <path id="Tracé_132" data-name="Tracé 132" d="M1863.568,1036.981a33.754,33.754,0,0,0,16.593-3.942c4-2.311,6.21-5.238,6.214-8.242,0-2.976-2.163-5.877-6.1-8.167-4.371-2.54-10.244-3.939-16.539-3.939a33.75,33.75,0,0,0-16.592,3.942c-4,2.311-6.21,5.238-6.214,8.242,0,2.977,2.163,5.877,6.1,8.167,4.37,2.54,10.244,3.939,16.538,3.939Z" transform="translate(-1838.913 -1012.454)" fill="#c2cee4" opacity="0.742"/>
          <path id="Tracé_133" data-name="Tracé 133" d="M1863.69,1036.8a33.442,33.442,0,0,0,16.44-3.906c3.966-2.29,6.153-5.19,6.157-8.166,0-2.949-2.144-5.823-6.048-8.092-4.331-2.517-10.15-3.9-16.387-3.9a33.442,33.442,0,0,0-16.44,3.906c-3.966,2.29-6.153,5.19-6.157,8.166,0,2.95,2.144,5.823,6.048,8.092,4.33,2.516,10.15,3.9,16.386,3.9Z" transform="translate(-1839.155 -1012.482)" fill="#c0cce3" opacity="0.774"/>
          <path id="Tracé_134" data-name="Tracé 134" d="M1863.813,1036.613a33.133,33.133,0,0,0,16.288-3.87c3.929-2.269,6.1-5.142,6.1-8.091,0-2.922-2.123-5.769-5.992-8.017a36.114,36.114,0,0,0-32.522,0c-3.929,2.269-6.1,5.142-6.1,8.091,0,2.922,2.124,5.769,5.992,8.017a32.862,32.862,0,0,0,16.234,3.866Z" transform="translate(-1839.399 -1012.511)" fill="#bdcae2" opacity="0.806"/>
          <path id="Tracé_135" data-name="Tracé 135" d="M1863.936,1036.429a32.821,32.821,0,0,0,16.135-3.833c3.893-2.247,6.039-5.094,6.043-8.015,0-2.894-2.1-5.715-5.936-7.942a35.777,35.777,0,0,0-32.218,0c-3.892,2.247-6.038,5.094-6.043,8.015,0,2.895,2.1,5.715,5.936,7.942a32.556,32.556,0,0,0,16.082,3.83Z" transform="translate(-1839.642 -1012.54)" fill="#bac8e1" opacity="0.839"/>
          <path id="Tracé_136" data-name="Tracé 136" d="M1864.059,1036.245a32.514,32.514,0,0,0,15.983-3.8c3.856-2.226,5.981-5.046,5.986-7.939,0-2.867-2.084-5.661-5.88-7.867a35.44,35.44,0,0,0-31.914,0c-3.855,2.226-5.981,5.046-5.985,7.939,0,2.868,2.084,5.661,5.88,7.867a32.247,32.247,0,0,0,15.93,3.794Z" transform="translate(-1839.886 -1012.568)" fill="#b8c6e0" opacity="0.871"/>
          <path id="Tracé_137" data-name="Tracé 137" d="M1864.181,1036.06a32.2,32.2,0,0,0,15.83-3.761c3.819-2.2,5.925-5,5.929-7.864,0-2.84-2.064-5.607-5.823-7.792a35.1,35.1,0,0,0-31.609,0c-3.819,2.205-5.925,5-5.929,7.864,0,2.84,2.064,5.607,5.824,7.792a31.942,31.942,0,0,0,15.778,3.757Z" transform="translate(-1840.128 -1012.597)" fill="#b5c3de" opacity="0.903"/>
          <path id="Tracé_138" data-name="Tracé 138" d="M1864.3,1035.876a31.893,31.893,0,0,0,15.678-3.725c3.783-2.184,5.868-4.95,5.872-7.788,0-2.812-2.044-5.553-5.767-7.717a34.761,34.761,0,0,0-31.3,0c-3.782,2.184-5.867,4.949-5.872,7.788,0,2.813,2.044,5.553,5.768,7.717a31.633,31.633,0,0,0,15.626,3.722Z" transform="translate(-1840.372 -1012.626)" fill="#b2c1dd" opacity="0.935"/>
          <path id="Tracé_139" data-name="Tracé 139" d="M1864.427,1035.692a31.588,31.588,0,0,0,15.525-3.689c3.746-2.162,5.811-4.9,5.815-7.712,0-2.785-2.024-5.5-5.711-7.642a34.424,34.424,0,0,0-31,0c-3.745,2.162-5.81,4.9-5.814,7.712,0,2.785,2.025,5.5,5.711,7.642a31.328,31.328,0,0,0,15.475,3.686Z" transform="translate(-1840.615 -1012.654)" fill="#b0bfdc" opacity="0.968"/>
          <path id="Tracé_140" data-name="Tracé 140" d="M1864.55,1035.508a31.272,31.272,0,0,0,15.373-3.652c3.709-2.141,5.753-4.853,5.757-7.636,0-2.758-2-5.445-5.655-7.567a34.087,34.087,0,0,0-30.7,0c-3.708,2.141-5.753,4.853-5.757,7.637,0,2.758,2,5.445,5.655,7.567a31.018,31.018,0,0,0,15.323,3.649Z" transform="translate(-1840.859 -1012.683)" fill="#adbddb"/>
        </g>
        <g id="Coin_02-3" data-name="Coin_02" transform="translate(2.052)">
          <g id="Coin-3" data-name="Coin">
            <path id="Tracé_141" data-name="Tracé 141" d="M1856.3,1005.928c7.361-4.25,19.256-4.248,26.568,0s7.274,11.138-.086,15.388-19.256,4.252-26.569,0S1848.938,1010.18,1856.3,1005.928Z" transform="translate(-1848.193 -1001.258)" fill="#ebeef5"/>
            <path id="Tracé_142" data-name="Tracé 142" d="M1856.963,1021.654c-7.313-4.25-7.278-11.14.087-15.392,6.426-3.71,16.305-4.178,23.577-1.41-7.33-3.1-17.673-2.745-24.325,1.1-7.364,4.252-7.4,11.142-.087,15.392a20.4,20.4,0,0,0,2.991,1.412A19.94,19.94,0,0,1,1856.963,1021.654Z" transform="translate(-1848.193 -1001.277)" fill="#e6e9f0" style="mix-blend-mode: multiply;isolation: isolate"/>
            <path id="Tracé_143" data-name="Tracé 143" d="M1896.976,1022.349a8.327,8.327,0,0,1,1.992.846,4.269,4.269,0,0,1,1.726,1.626,2.5,2.5,0,0,1,.218,1.849,4.445,4.445,0,0,1-1.17,1.922,9.85,9.85,0,0,1-1.525,1.257l1.625.944-2.708,1.564-1.676-.974a15.432,15.432,0,0,1-5.406,1.423,12.477,12.477,0,0,1-6.681-1.406l3.26-1.883a6.9,6.9,0,0,0,1.913.6,7.872,7.872,0,0,0,1.989.057,9.252,9.252,0,0,0,2-.428l.069-.027-5.218-3.032c-.508.172-1.006.334-1.477.485a20.091,20.091,0,0,1-2.932.714,10.751,10.751,0,0,1-2.646.117,7.7,7.7,0,0,1-2.5-.663c-.217-.1-.43-.2-.639-.3a5.511,5.511,0,0,1-.6-.355,3.489,3.489,0,0,1-1.3-1.429,2.313,2.313,0,0,1-.085-1.645,4.41,4.41,0,0,1,1.112-1.75,8.357,8.357,0,0,1,1.11-.955l-1.954-1.136,2.708-1.563,1.964,1.142a15.8,15.8,0,0,1,1.721-.672,14.113,14.113,0,0,1,3.29-.661,11.973,11.973,0,0,1,3.158.16,10.256,10.256,0,0,1,2.886.991l-3.3,1.906a6.093,6.093,0,0,0-4.97-.1l4.666,2.711c.327-.117.65-.233.962-.346.741-.264,1.47-.5,2.192-.692a20.223,20.223,0,0,1,2.136-.464,10.355,10.355,0,0,1,2.073-.134A8.941,8.941,0,0,1,1896.976,1022.349Zm-.426,3.652a1.813,1.813,0,0,0-.779-.764,2.933,2.933,0,0,0-1.146-.376,5.3,5.3,0,0,0-1.41.036,11.877,11.877,0,0,0-1.76.413c-.214.065-.443.139-.682.214l4.651,2.7c.149-.115.291-.231.419-.346a2.835,2.835,0,0,0,.723-.982,1.122,1.122,0,0,0-.017-.9Zm-12.32-1.142-3.994-2.321-.069.065a2.453,2.453,0,0,0-.632.892,1.011,1.011,0,0,0,.017.8,1.523,1.523,0,0,0,.674.665,2.841,2.841,0,0,0,1.02.361,4.25,4.25,0,0,0,1.25-.036,12.791,12.791,0,0,0,1.633-.395l.1-.029Z" transform="translate(-1866.089 -1012.46)" fill="#31c7ed" style="mix-blend-mode: multiply;isolation: isolate"/>
            <path id="Tracé_144" data-name="Tracé 144" d="M1896.072,1020.676a8.3,8.3,0,0,1,1.992.846,4.269,4.269,0,0,1,1.726,1.626,2.5,2.5,0,0,1,.218,1.849,4.443,4.443,0,0,1-1.17,1.922,9.839,9.839,0,0,1-1.525,1.257l1.625.945-2.708,1.563-1.676-.974a15.454,15.454,0,0,1-5.406,1.423,12.482,12.482,0,0,1-6.681-1.406l3.261-1.882a6.9,6.9,0,0,0,1.913.6,7.87,7.87,0,0,0,1.989.057,9.266,9.266,0,0,0,2-.428l.069-.027-5.219-3.033c-.508.172-1.006.334-1.477.485a20.093,20.093,0,0,1-2.932.713,10.744,10.744,0,0,1-2.645.118,7.693,7.693,0,0,1-2.5-.663c-.217-.1-.43-.2-.639-.3a5.506,5.506,0,0,1-.6-.355,3.492,3.492,0,0,1-1.3-1.429,2.313,2.313,0,0,1-.085-1.645,4.411,4.411,0,0,1,1.111-1.75,8.392,8.392,0,0,1,1.11-.955l-1.954-1.136,2.708-1.563,1.965,1.142a15.8,15.8,0,0,1,1.721-.672,14.1,14.1,0,0,1,3.29-.661,11.973,11.973,0,0,1,3.159.16,10.256,10.256,0,0,1,2.885.991l-3.3,1.906a6.091,6.091,0,0,0-4.97-.105l4.666,2.711.962-.346c.74-.265,1.47-.5,2.192-.693a20.231,20.231,0,0,1,2.136-.464,10.38,10.38,0,0,1,2.073-.134A8.941,8.941,0,0,1,1896.072,1020.676Zm-.426,3.651a1.811,1.811,0,0,0-.778-.764,2.929,2.929,0,0,0-1.146-.376,5.3,5.3,0,0,0-1.41.036,11.877,11.877,0,0,0-1.76.414c-.214.065-.443.138-.682.214l4.651,2.7c.149-.116.291-.231.419-.346a2.835,2.835,0,0,0,.723-.982,1.121,1.121,0,0,0-.016-.9Zm-12.32-1.142-3.994-2.321-.069.065a2.452,2.452,0,0,0-.632.892,1.01,1.01,0,0,0,.017.8,1.525,1.525,0,0,0,.674.665,2.847,2.847,0,0,0,1.02.361,4.235,4.235,0,0,0,1.25-.036,12.743,12.743,0,0,0,1.633-.394l.1-.029Z" transform="translate(-1865.424 -1011.229)" fill="#81e5fe"/>
            <path id="Tracé_145" data-name="Tracé 145" d="M1883.772,1043.642l.01,3.713c.009,3.185-2.093,6.374-6.3,8.8-8.368,4.831-21.882,4.831-30.192,0-4.128-2.4-6.2-5.539-6.2-8.684l-.011-3.713c.009,3.145,2.077,6.285,6.2,8.684,8.31,4.829,21.825,4.829,30.192,0C1881.679,1050.016,1883.781,1046.827,1883.772,1043.642Z" transform="translate(-1841.073 -1031.337)" fill="url(#linear-gradient)"/>
            <path id="Tracé_146" data-name="Tracé 146" d="M1847.377,1000.754c8.364-4.829,21.882-4.827,30.192,0s8.266,12.657-.1,17.486-21.882,4.831-30.192,0S1839.009,1005.585,1847.377,1000.754Zm28.288,16.439c7.361-4.25,7.4-11.138.087-15.388s-19.208-4.252-26.569,0-7.4,11.142-.087,15.392,19.2,4.25,26.569,0Z" transform="translate(-1841.073 -997.133)" fill="#f6f8fc"/>
          </g>
        </g>
      </g>
      <g id="Groupe_9" data-name="Groupe 9" transform="translate(2.052 0)">
        <g id="Groupe_8" data-name="Groupe 8" transform="translate(0 3.879)" style="mix-blend-mode: multiply;isolation: isolate">
          <path id="Tracé_147" data-name="Tracé 147" d="M1868.5,1016.159c7.627,0,14.765-1.7,20.1-4.775,4.849-2.8,7.522-6.345,7.527-9.984.005-3.606-2.62-7.119-7.393-9.893-5.294-3.077-12.409-4.771-20.034-4.771s-14.765,1.7-20.1,4.775c-4.849,2.8-7.522,6.345-7.527,9.984-.005,3.606,2.621,7.119,7.394,9.893,5.294,3.076,12.409,4.771,20.032,4.771Z" transform="translate(-1841.073 -986.736)" fill="#fff" opacity="0"/>
          <path id="Tracé_148" data-name="Tracé 148" d="M1868.622,1015.974c7.57,0,14.653-1.683,19.946-4.739,4.812-2.778,7.465-6.3,7.47-9.908.005-3.578-2.6-7.065-7.337-9.818-5.254-3.053-12.315-4.735-19.881-4.735s-14.653,1.683-19.946,4.739c-4.812,2.778-7.465,6.3-7.47,9.908-.005,3.578,2.6,7.065,7.338,9.818,5.253,3.053,12.314,4.735,19.88,4.735Z" transform="translate(-1841.316 -986.765)" fill="#fcfdfe" opacity="0.032"/>
          <path id="Tracé_149" data-name="Tracé 149" d="M1868.745,1015.79c7.512,0,14.541-1.67,19.793-4.7,4.775-2.757,7.408-6.249,7.413-9.832.005-3.551-2.581-7.011-7.281-9.743-5.214-3.03-12.221-4.7-19.729-4.7s-14.541,1.67-19.793,4.7c-4.776,2.757-7.408,6.249-7.413,9.832-.005,3.551,2.581,7.011,7.282,9.743,5.213,3.03,12.22,4.7,19.728,4.7Z" transform="translate(-1841.56 -986.793)" fill="#fafbfd" opacity="0.065"/>
          <path id="Tracé_150" data-name="Tracé 150" d="M1868.869,1015.606c7.454,0,14.429-1.657,19.641-4.667,4.739-2.736,7.351-6.2,7.356-9.757.005-3.524-2.561-6.957-7.225-9.667-5.174-3.007-12.127-4.663-19.578-4.663s-14.429,1.657-19.641,4.666c-4.739,2.736-7.351,6.2-7.356,9.757-.005,3.524,2.561,6.957,7.226,9.668,5.173,3.006,12.126,4.662,19.576,4.662Z" transform="translate(-1841.803 -986.822)" fill="#f7f9fc" opacity="0.097"/>
          <path id="Tracé_151" data-name="Tracé 151" d="M1868.99,1015.422c7.4,0,14.317-1.644,19.489-4.63,4.7-2.715,7.294-6.153,7.3-9.681.005-3.5-2.541-6.9-7.169-9.593-5.134-2.983-12.032-4.626-19.426-4.626s-14.317,1.644-19.489,4.63c-4.7,2.715-7.294,6.153-7.3,9.681,0,3.5,2.542,6.9,7.169,9.593,5.133,2.983,12.032,4.626,19.425,4.626Z" transform="translate(-1842.046 -986.851)" fill="#f4f6fa" opacity="0.129"/>
          <path id="Tracé_152" data-name="Tracé 152" d="M1869.114,1015.238c7.338,0,14.205-1.632,19.336-4.594,4.665-2.693,7.237-6.1,7.242-9.605,0-3.469-2.521-6.849-7.113-9.517-5.094-2.96-11.938-4.59-19.274-4.59s-14.2,1.631-19.336,4.594c-4.665,2.693-7.237,6.1-7.242,9.6,0,3.469,2.521,6.849,7.113,9.518,5.093,2.96,11.938,4.59,19.273,4.59Z" transform="translate(-1842.289 -986.879)" fill="#f2f4f9" opacity="0.161"/>
          <path id="Tracé_153" data-name="Tracé 153" d="M1869.236,1015.054c7.28,0,14.093-1.619,19.184-4.558,4.628-2.672,7.18-6.056,7.185-9.53.005-3.442-2.5-6.795-7.057-9.442-5.053-2.937-11.844-4.554-19.122-4.554s-14.093,1.619-19.184,4.558c-4.628,2.672-7.18,6.056-7.185,9.529,0,3.442,2.5,6.8,7.057,9.443,5.053,2.937,11.844,4.554,19.121,4.554Z" transform="translate(-1842.533 -986.908)" fill="#eff2f8" opacity="0.194"/>
          <path id="Tracé_154" data-name="Tracé 154" d="M1869.359,1014.869c7.222,0,13.981-1.606,19.031-4.522,4.592-2.651,7.123-6.008,7.128-9.454,0-3.414-2.482-6.741-7-9.367-5.013-2.914-11.75-4.518-18.97-4.518s-13.981,1.606-19.031,4.522c-4.591,2.651-7.123,6.008-7.127,9.454,0,3.414,2.482,6.741,7,9.368,5.013,2.913,11.75,4.517,18.969,4.517Z" transform="translate(-1842.776 -986.937)" fill="#ecf0f7" opacity="0.226"/>
          <path id="Tracé_155" data-name="Tracé 155" d="M1869.482,1014.685c7.165,0,13.869-1.593,18.879-4.485,4.555-2.63,7.066-5.96,7.071-9.378,0-3.387-2.462-6.687-6.945-9.292-4.973-2.89-11.656-4.482-18.818-4.482s-13.869,1.593-18.879,4.485c-4.555,2.63-7.066,5.96-7.07,9.378,0,3.387,2.462,6.687,6.945,9.293,4.973,2.89,11.656,4.481,18.817,4.481Z" transform="translate(-1843.02 -986.965)" fill="#eaeef6" opacity="0.258"/>
          <path id="Tracé_156" data-name="Tracé 156" d="M1869.6,1014.5c7.107,0,13.757-1.58,18.726-4.449,4.518-2.608,7.009-5.912,7.013-9.3.005-3.36-2.441-6.633-6.889-9.217-4.933-2.867-11.562-4.445-18.666-4.445s-13.757,1.58-18.726,4.449c-4.518,2.608-7.008,5.912-7.013,9.3,0,3.36,2.442,6.633,6.889,9.218,4.932,2.866,11.562,4.445,18.665,4.445Z" transform="translate(-1843.262 -986.994)" fill="#e7ecf5" opacity="0.29"/>
          <path id="Tracé_157" data-name="Tracé 157" d="M1869.727,1014.317c7.049,0,13.645-1.567,18.574-4.413,4.481-2.587,6.951-5.864,6.956-9.227,0-3.332-2.422-6.579-6.833-9.143-4.893-2.843-11.468-4.409-18.514-4.409s-13.645,1.567-18.574,4.413c-4.481,2.587-6.952,5.864-6.956,9.227,0,3.332,2.422,6.579,6.833,9.143,4.892,2.843,11.468,4.409,18.513,4.409Z" transform="translate(-1843.506 -987.023)" fill="#e5eaf3" opacity="0.323"/>
          <path id="Tracé_158" data-name="Tracé 158" d="M1869.85,1014.133c6.991,0,13.533-1.554,18.422-4.377,4.444-2.566,6.895-5.816,6.9-9.151,0-3.3-2.4-6.525-6.777-9.067-4.853-2.82-11.374-4.373-18.362-4.373s-13.533,1.554-18.421,4.377c-4.444,2.566-6.895,5.816-6.9,9.151,0,3.3,2.4,6.525,6.777,9.068,4.852,2.82,11.373,4.373,18.361,4.373Z" transform="translate(-1843.749 -987.051)" fill="#e2e8f2" opacity="0.355"/>
          <path id="Tracé_159" data-name="Tracé 159" d="M1869.973,1013.949c6.933,0,13.421-1.541,18.269-4.34,4.408-2.545,6.837-5.768,6.842-9.075,0-3.278-2.382-6.471-6.721-8.992-4.812-2.8-11.28-4.337-18.21-4.337s-13.421,1.541-18.269,4.34c-4.408,2.545-6.837,5.768-6.842,9.075,0,3.278,2.382,6.471,6.721,8.992,4.812,2.8,11.279,4.337,18.209,4.337Z" transform="translate(-1843.993 -987.08)" fill="#dfe5f1" opacity="0.387"/>
          <path id="Tracé_160" data-name="Tracé 160" d="M1870.1,1013.765c6.876,0,13.31-1.529,18.117-4.3,4.371-2.523,6.78-5.72,6.785-9,0-3.25-2.362-6.417-6.664-8.917-4.772-2.773-11.186-4.3-18.058-4.3s-13.309,1.528-18.117,4.3c-4.371,2.523-6.78,5.719-6.785,9,0,3.25,2.363,6.417,6.665,8.918,4.772,2.773,11.185,4.3,18.057,4.3Z" transform="translate(-1844.235 -987.109)" fill="#dde3f0" opacity="0.419"/>
          <path id="Tracé_161" data-name="Tracé 161" d="M1870.218,1013.58c6.818,0,13.2-1.516,17.964-4.268,4.334-2.5,6.723-5.672,6.728-8.924,0-3.223-2.342-6.363-6.609-8.842-4.732-2.75-11.091-4.264-17.906-4.264s-13.2,1.516-17.964,4.268c-4.334,2.5-6.723,5.671-6.728,8.924,0,3.223,2.342,6.363,6.609,8.842,4.731,2.75,11.091,4.264,17.905,4.264Z" transform="translate(-1844.479 -987.138)" fill="#dae1ef" opacity="0.452"/>
          <path id="Tracé_162" data-name="Tracé 162" d="M1870.341,1013.4c6.759,0,13.085-1.5,17.812-4.232,4.3-2.481,6.666-5.623,6.671-8.848,0-3.2-2.322-6.309-6.552-8.767-4.692-2.727-11-4.228-17.754-4.228s-13.085,1.5-17.812,4.232c-4.3,2.481-6.666,5.623-6.671,8.848,0,3.2,2.323,6.309,6.553,8.767,4.691,2.727,11,4.228,17.753,4.228Z" transform="translate(-1844.722 -987.166)" fill="#d7dfee" opacity="0.484"/>
          <path id="Tracé_163" data-name="Tracé 163" d="M1870.464,1013.212c6.7,0,12.974-1.49,17.659-4.2,4.261-2.46,6.61-5.575,6.614-8.772,0-3.168-2.3-6.255-6.5-8.692-4.652-2.7-10.9-4.192-17.6-4.192s-12.973,1.49-17.66,4.2c-4.26,2.46-6.609,5.575-6.614,8.772,0,3.168,2.3,6.255,6.5,8.692,4.651,2.7,10.9,4.192,17.6,4.192Z" transform="translate(-1844.966 -987.195)" fill="#d5ddec" opacity="0.516"/>
          <path id="Tracé_164" data-name="Tracé 164" d="M1870.587,1013.028c6.644,0,12.861-1.477,17.507-4.159,4.224-2.439,6.552-5.527,6.557-8.7,0-3.141-2.283-6.2-6.44-8.617-4.612-2.68-10.809-4.156-17.45-4.156s-12.861,1.477-17.507,4.159c-4.224,2.438-6.552,5.527-6.556,8.7,0,3.141,2.283,6.2,6.44,8.617,4.611,2.68,10.809,4.156,17.45,4.156Z" transform="translate(-1845.209 -987.224)" fill="#d2dbeb" opacity="0.548"/>
          <path id="Tracé_165" data-name="Tracé 165" d="M1870.709,1012.844c6.586,0,12.749-1.464,17.355-4.123,4.187-2.417,6.5-5.479,6.5-8.621,0-3.113-2.263-6.147-6.384-8.542-4.572-2.657-10.715-4.12-17.3-4.12s-12.749,1.464-17.354,4.123c-4.187,2.417-6.5,5.479-6.5,8.621,0,3.114,2.263,6.148,6.385,8.542,4.571,2.656,10.715,4.12,17.3,4.12Z" transform="translate(-1845.452 -987.252)" fill="#cfd9ea" opacity="0.581"/>
          <path id="Tracé_166" data-name="Tracé 166" d="M1870.832,1012.66c6.528,0,12.637-1.451,17.2-4.087,4.15-2.4,6.438-5.431,6.442-8.545,0-3.086-2.243-6.093-6.328-8.467-4.532-2.634-10.621-4.084-17.147-4.084s-12.637,1.452-17.2,4.087c-4.15,2.4-6.438,5.431-6.443,8.545,0,3.086,2.243,6.094,6.329,8.468,4.531,2.633,10.62,4.083,17.146,4.083Z" transform="translate(-1845.695 -987.281)" fill="#cdd7e9" opacity="0.613"/>
          <path id="Tracé_167" data-name="Tracé 167" d="M1870.955,1012.476c6.47,0,12.525-1.439,17.05-4.051,4.113-2.375,6.381-5.383,6.385-8.469,0-3.058-2.223-6.039-6.272-8.392-4.491-2.61-10.527-4.047-16.995-4.047s-12.525,1.439-17.05,4.051c-4.113,2.375-6.381,5.383-6.385,8.469,0,3.059,2.223,6.039,6.272,8.392,4.491,2.61,10.526,4.047,16.994,4.047Z" transform="translate(-1845.939 -987.31)" fill="#cad4e8" opacity="0.645"/>
          <path id="Tracé_168" data-name="Tracé 168" d="M1871.078,1012.291c6.412,0,12.413-1.426,16.9-4.015,4.077-2.354,6.324-5.335,6.329-8.394,0-3.031-2.2-5.985-6.216-8.317-4.451-2.587-10.433-4.011-16.843-4.011s-12.413,1.426-16.9,4.015c-4.077,2.353-6.324,5.334-6.328,8.394,0,3.031,2.2,5.985,6.216,8.317,4.45,2.587,10.432,4.011,16.842,4.011Z" transform="translate(-1846.182 -987.338)" fill="#c7d2e7" opacity="0.677"/>
          <path id="Tracé_169" data-name="Tracé 169" d="M1871.2,1012.107a34.061,34.061,0,0,0,16.745-3.978c4.04-2.332,6.267-5.286,6.271-8.318,0-3-2.183-5.931-6.16-8.242-4.411-2.563-10.338-3.975-16.691-3.975a34.06,34.06,0,0,0-16.745,3.978c-4.04,2.332-6.267,5.286-6.271,8.318,0,3,2.184,5.931,6.16,8.242,4.41,2.563,10.338,3.975,16.69,3.975Z" transform="translate(-1846.425 -987.367)" fill="#c5d0e5" opacity="0.71"/>
          <path id="Tracé_170" data-name="Tracé 170" d="M1871.323,1011.923a33.753,33.753,0,0,0,16.593-3.942c4-2.311,6.21-5.238,6.214-8.242,0-2.976-2.163-5.877-6.1-8.167-4.371-2.54-10.244-3.939-16.539-3.939a33.75,33.75,0,0,0-16.592,3.942c-4,2.311-6.21,5.238-6.214,8.242,0,2.977,2.164,5.877,6.1,8.167,4.37,2.54,10.244,3.938,16.538,3.938Z" transform="translate(-1846.668 -987.396)" fill="#c2cee4" opacity="0.742"/>
          <path id="Tracé_171" data-name="Tracé 171" d="M1871.446,1011.739a33.442,33.442,0,0,0,16.44-3.906c3.966-2.29,6.153-5.19,6.157-8.167,0-2.949-2.144-5.823-6.048-8.092-4.331-2.517-10.15-3.9-16.387-3.9a33.442,33.442,0,0,0-16.44,3.906c-3.966,2.29-6.153,5.19-6.157,8.166,0,2.95,2.144,5.823,6.048,8.092,4.33,2.516,10.15,3.9,16.386,3.9Z" transform="translate(-1846.911 -987.424)" fill="#c0cce3" opacity="0.774"/>
          <path id="Tracé_172" data-name="Tracé 172" d="M1871.569,1011.555a33.135,33.135,0,0,0,16.288-3.87c3.929-2.269,6.1-5.142,6.1-8.091,0-2.922-2.124-5.769-5.992-8.017a36.114,36.114,0,0,0-32.522,0c-3.929,2.268-6.1,5.142-6.1,8.091,0,2.922,2.124,5.769,5.992,8.017a32.863,32.863,0,0,0,16.234,3.866Z" transform="translate(-1847.155 -987.453)" fill="#bdcae2" opacity="0.806"/>
          <path id="Tracé_173" data-name="Tracé 173" d="M1871.692,1011.371a32.82,32.82,0,0,0,16.135-3.833c3.893-2.247,6.039-5.094,6.043-8.015,0-2.895-2.1-5.715-5.936-7.942a35.778,35.778,0,0,0-32.218,0c-3.892,2.247-6.038,5.094-6.043,8.015,0,2.895,2.1,5.715,5.936,7.942a32.555,32.555,0,0,0,16.082,3.83Z" transform="translate(-1847.398 -987.482)" fill="#bac8e1" opacity="0.839"/>
          <path id="Tracé_174" data-name="Tracé 174" d="M1871.815,1011.187a32.512,32.512,0,0,0,15.983-3.8c3.856-2.226,5.982-5.046,5.986-7.939,0-2.867-2.084-5.661-5.88-7.867a35.438,35.438,0,0,0-31.913,0c-3.856,2.226-5.982,5.046-5.986,7.939,0,2.867,2.084,5.661,5.88,7.867a32.247,32.247,0,0,0,15.93,3.794Z" transform="translate(-1847.642 -987.51)" fill="#b8c6e0" opacity="0.871"/>
          <path id="Tracé_175" data-name="Tracé 175" d="M1871.937,1011a32.2,32.2,0,0,0,15.831-3.761c3.819-2.205,5.925-5,5.929-7.864,0-2.84-2.064-5.607-5.823-7.792a35.1,35.1,0,0,0-31.609,0c-3.819,2.2-5.924,5-5.929,7.864,0,2.84,2.064,5.607,5.824,7.792a31.94,31.94,0,0,0,15.778,3.758Z" transform="translate(-1847.884 -987.539)" fill="#b5c3de" opacity="0.903"/>
          <path id="Tracé_176" data-name="Tracé 176" d="M1872.06,1010.818a31.893,31.893,0,0,0,15.678-3.725c3.783-2.184,5.868-4.95,5.872-7.788,0-2.812-2.044-5.553-5.767-7.717a34.762,34.762,0,0,0-31.305,0c-3.782,2.184-5.867,4.95-5.871,7.788,0,2.813,2.044,5.553,5.767,7.717a31.635,31.635,0,0,0,15.627,3.722Z" transform="translate(-1848.128 -987.568)" fill="#b2c1dd" opacity="0.935"/>
          <path id="Tracé_177" data-name="Tracé 177" d="M1872.183,1010.634a31.587,31.587,0,0,0,15.526-3.689c3.745-2.162,5.81-4.9,5.815-7.712,0-2.785-2.024-5.5-5.712-7.642a34.424,34.424,0,0,0-31,0c-3.745,2.162-5.81,4.9-5.814,7.712,0,2.785,2.025,5.5,5.712,7.642a31.326,31.326,0,0,0,15.474,3.686Z" transform="translate(-1848.371 -987.596)" fill="#b0bfdc" opacity="0.968"/>
          <path id="Tracé_178" data-name="Tracé 178" d="M1872.306,1010.45a31.271,31.271,0,0,0,15.373-3.652c3.709-2.142,5.754-4.853,5.758-7.637,0-2.758-2-5.445-5.655-7.567a34.086,34.086,0,0,0-30.7,0c-3.709,2.141-5.753,4.853-5.757,7.636,0,2.758,2,5.445,5.656,7.567a31.016,31.016,0,0,0,15.322,3.649Z" transform="translate(-1848.615 -987.625)" fill="#adbddb"/>
        </g>
        <g id="Coin_02-4" data-name="Coin_02" transform="translate(2.052)">
          <g id="Coin-4" data-name="Coin">
            <path id="Tracé_179" data-name="Tracé 179" d="M1864.058,980.87c7.361-4.25,19.255-4.248,26.569,0s7.274,11.138-.087,15.388-19.256,4.252-26.569,0S1856.693,985.122,1864.058,980.87Z" transform="translate(-1855.949 -976.2)" fill="#ebeef5"/>
            <path id="Tracé_180" data-name="Tracé 180" d="M1864.719,996.6c-7.313-4.25-7.278-11.14.087-15.392,6.426-3.71,16.306-4.178,23.578-1.41-7.33-3.1-17.673-2.745-24.325,1.1-7.364,4.252-7.4,11.142-.087,15.392a20.407,20.407,0,0,0,2.991,1.412A19.941,19.941,0,0,1,1864.719,996.6Z" transform="translate(-1855.949 -976.219)" fill="#e6e9f0" style="mix-blend-mode: multiply;isolation: isolate"/>
            <path id="Tracé_183" data-name="Tracé 183" d="M1891.528,1018.584l.011,3.713c.009,3.185-2.093,6.374-6.3,8.8-8.368,4.831-21.882,4.831-30.192,0-4.129-2.4-6.2-5.539-6.2-8.684l-.011-3.713c.009,3.145,2.076,6.285,6.2,8.684,8.31,4.829,21.824,4.829,30.192,0C1889.435,1024.958,1891.537,1021.769,1891.528,1018.584Z" transform="translate(-1848.829 -1006.279)" fill="url(#linear-gradient)"/>
            <path id="Tracé_184" data-name="Tracé 184" d="M1855.133,975.7c8.364-4.829,21.882-4.827,30.192,0s8.266,12.657-.1,17.486-21.882,4.831-30.192,0S1846.765,980.527,1855.133,975.7Zm28.288,16.439c7.361-4.25,7.4-11.138.086-15.388s-19.208-4.252-26.569,0-7.4,11.142-.086,15.392,19.2,4.25,26.569,0Z" transform="translate(-1848.829 -972.075)" fill="#f6f8fc"/>
          </g>
        </g>
      </g>
    </g>
    <g id="CONTACTLESS" transform="translate(988.266 5448.457)">
      <path id="Tracé_298" data-name="Tracé 298" d="M1593.515,441.553a32.669,32.669,0,0,1,10.1,9.691c.8,1.154.961,2.554.357,3.129a1.184,1.184,0,0,1-1.454,0,3.473,3.473,0,0,1-1.08-1.04,25.7,25.7,0,0,0-7.931-7.614c-2.984-1.716-5.722-2.177-7.948-1.553a1.433,1.433,0,0,1-1.088-.211,3.839,3.839,0,0,1-1.451-1.675c-.6-1.269-.425-2.477.374-2.707C1586.218,438.775,1589.728,439.366,1593.515,441.553Zm-22.495-28.279c-.8.226-.972,1.437-.374,2.707a3.845,3.845,0,0,0,1.451,1.675,1.436,1.436,0,0,0,1.087.211c5.694-1.6,12.74-.422,20.386,3.992s14.669,11.362,20.335,19.518a3.507,3.507,0,0,0,1.085,1.043,1.186,1.186,0,0,0,1.456,0c.6-.576.444-1.976-.357-3.129-6.265-9.021-14.065-16.733-22.507-21.607S1577.317,411.505,1571.02,413.273Zm8.249,17.53c-.805.226-.972,1.437-.374,2.707a3.842,3.842,0,0,0,1.451,1.675,1.438,1.438,0,0,0,1.088.211c3.377-.951,7.554-.253,12.091,2.367a38.981,38.981,0,0,1,12.066,11.58,3.505,3.505,0,0,0,1.085,1.043,1.186,1.186,0,0,0,1.456,0c.6-.569.444-1.976-.357-3.122a45.987,45.987,0,0,0-14.237-13.668C1588.2,430.509,1583.249,429.681,1579.269,430.8Zm-4.121-8.76c-.8.219-.972,1.438-.374,2.707a3.864,3.864,0,0,0,1.455,1.676,1.427,1.427,0,0,0,1.083.211c4.536-1.274,10.144-.343,16.235,3.174a52.421,52.421,0,0,1,16.2,15.553,3.5,3.5,0,0,0,1.085,1.043,1.185,1.185,0,0,0,1.456,0c.6-.576.444-1.976-.357-3.129-5.113-7.363-11.484-13.664-18.372-17.641S1580.286,420.6,1575.148,422.044Z" transform="translate(-1570.288 -412.522)" fill="#0a8bd9"/>
    </g>
    <g id="Shadow" transform="translate(934.101 5564.531)">
      <ellipse id="Ellipse_1" data-name="Ellipse 1" cx="24.754" cy="91.218" rx="24.754" ry="91.218" transform="translate(0 42.876) rotate(-60)" fill="url(#radial-gradient)" style="mix-blend-mode: multiply;isolation: isolate"/>
    </g>
    <g id="Phone" transform="translate(957.784 5381.158)">
      <path id="Tracé_224" data-name="Tracé 224" d="M1546.815,230.779c7.922,4.574,14.356,15.707,14.33,24.821l-.54,190.327c-.026,9.1-6.5,13.091-14.425,8.517l-69.206-39.956c-7.923-4.574-14.355-16.015-14.329-25.118l.539-190.328c.026-9.113,6.5-12.794,14.424-8.22ZM1466.868,392.8c-.018,6.253,4.388,13.885,9.829,17.026l69.843,40.324c5.441,3.141,9.877.614,9.894-5.639l.544-191.789c.018-6.262-4.389-13.884-9.83-17.026l-8.2-4.733c-.958-.553-1.746-.113-1.749,1.231-.009,3.3-2.349,4.635-5.223,2.976l-39.55-22.834a11.512,11.512,0,0,1-5.2-9.226,3.819,3.819,0,0,0-1.738-3.01l-8.19-4.728c-5.441-3.141-9.876-.623-9.894,5.638l-.544,191.789Zm50.815-172.569-10.812-6.242c-.471-.272-.857-.052-.859.489a1.888,1.888,0,0,0,.853,1.486l10.812,6.242c.479.277.865.057.867-.494a1.886,1.886,0,0,0-.861-1.482ZM1501.291,209.9c-.871-.5-1.588-.095-1.591.907a3.482,3.482,0,0,0,1.581,2.729c.871.5,1.581.1,1.583-.9a3.483,3.483,0,0,0-1.573-2.734Z" transform="translate(-1460.644 -180.734)" fill="#f2f4f8"/>
      <path id="Tracé_225" data-name="Tracé 225" d="M1604.286,267.79c-.871-.5-1.588-.095-1.591.907a3.483,3.483,0,0,0,1.581,2.729c.872.5,1.581.1,1.583-.9A3.482,3.482,0,0,0,1604.286,267.79Z" transform="translate(-1563.639 -238.625)" fill="#1c75bc"/>
      <path id="Tracé_226" data-name="Tracé 226" d="M1627.414,283.521c-.471-.272-.857-.052-.859.49a1.887,1.887,0,0,0,.853,1.486l10.812,6.242c.479.277.865.057.867-.493a1.887,1.887,0,0,0-.861-1.482Z" transform="translate(-1581.186 -250.267)" fill="#1c75bc"/>
      <path id="Tracé_227" data-name="Tracé 227" d="M1455.079,381.039c-.029,10.393,7.28,23.055,16.326,28.277l69.206,39.956c9.045,5.222,16.4,1.029,16.432-9.364l.54-190.327c.029-10.394-7.28-23.054-16.326-28.277l-69.206-39.956c-9.045-5.222-16.4-1.03-16.432,9.364Zm2.286,4.661a22.11,22.11,0,0,1-.283-3.505l.54-190.328c.015-5.411,2.3-8.906,5.82-9.9a7.6,7.6,0,0,1,1.15-.229,8.494,8.494,0,0,1,1.224-.058,13.248,13.248,0,0,1,6.23,1.963l69.207,39.956a26.027,26.027,0,0,1,6.839,5.948,34.237,34.237,0,0,1,6.632,12.692q.24.9.416,1.794a22.536,22.536,0,0,1,.442,4.387l-.54,190.328a11.9,11.9,0,0,1-2.486,7.9c-2.6,2.989-6.986,3.474-11.938.615l-69.207-39.956a23.221,23.221,0,0,1-4.6-3.567,31.518,31.518,0,0,1-3.419-3.99q-.573-.79-1.1-1.618c-.243-.378-.476-.762-.7-1.149q-.32-.541-.62-1.093c-.213-.391-.421-.783-.619-1.181a34.423,34.423,0,0,1-1.858-4.489,28.7,28.7,0,0,1-1.117-4.526Z" transform="translate(-1455.078 -173.559)" fill="#ebedf2"/>
      <path id="Tracé_228" data-name="Tracé 228" d="M1565.571,200.361,1496.365,160.4c-4.552-2.628-8.676-2.871-11.654-1.141l-9.535,5.541c2.979-1.731,7.1-1.487,11.654,1.141l69.207,39.957c9.045,5.222,16.355,17.883,16.325,28.277l-.54,190.327c-.015,5.164-1.837,8.8-4.778,10.505l9.535-5.541c2.94-1.708,4.763-5.342,4.778-10.5l.539-190.328C1581.926,218.244,1574.617,205.583,1565.571,200.361Z" transform="translate(-1469.859 -158.158)" fill="url(#linear-gradient-5)"/>
      <path id="Tracé_229" data-name="Tracé 229" d="M1489.04,209.729c-5.441-3.141-9.876-.623-9.894,5.638l-.544,191.789c-.018,6.253,4.388,13.885,9.83,17.026l69.843,40.324c5.441,3.141,9.876.614,9.894-5.639l.544-191.789c.018-6.262-4.389-13.884-9.83-17.026l-8.2-4.733c-.958-.553-1.746-.114-1.749,1-.01,3.537-2.349,4.87-5.223,3.211l-39.55-22.834a11.441,11.441,0,0,1-5.2-8.992,3.9,3.9,0,0,0-1.737-3.244Z" transform="translate(-1472.379 -195.09)" fill="#3500e6"/>
    </g>
    <g id="Hole" transform="translate(973.536 5523.959)">
      <g id="Groupe_21" data-name="Groupe 21" transform="translate(0 0)">
        <g id="Groupe_20" data-name="Groupe 20" style="isolation: isolate">
          <g id="Groupe_17" data-name="Groupe 17" transform="translate(69.436 40.089)">
            <path id="Tracé_230" data-name="Tracé 230" d="M1777.057,858.666l2.5-1.452.022-7.8-2.5,1.452Z" transform="translate(-1777.057 -849.412)" fill="#230aaa"/>
          </g>
          <g id="Groupe_18" data-name="Groupe 18" transform="translate(0.022)">
            <path id="Tracé_231" data-name="Tracé 231" d="M1584.135,739.432l2.5-1.452L1517.2,697.891l-2.5,1.452Z" transform="translate(-1514.699 -697.891)" fill="#230aaa"/>
          </g>
          <g id="Groupe_19" data-name="Groupe 19" transform="translate(0 1.452)">
            <path id="Tracé_232" data-name="Tracé 232" d="M1514.637,703.379l-.022,7.8,69.436,40.089.022-7.8Z" transform="translate(-1514.615 -703.379)" fill="#230aaa"/>
            <path id="Tracé_233" data-name="Tracé 233" d="M1523.563,721.716l.007-3.278,64.717,37.364-.007,3.278Z" transform="translate(-1521.196 -714.454)" fill="#52c0db" style="mix-blend-mode: multiply;isolation: isolate"/>
          </g>
        </g>
      </g>
    </g>
    <g id="Shadow-2" data-name="Shadow" transform="translate(913.66 5584.128)">
      <circle id="Ellipse_6" data-name="Ellipse 6" cx="46.103" cy="46.103" r="46.103" transform="translate(0 0)" fill="url(#radial-gradient-2)" style="mix-blend-mode: multiply;isolation: isolate"/>
    </g>
    <g id="Check" transform="translate(889.5 5531.625)">
      <g id="Groupe_35" data-name="Groupe 35" transform="translate(0 0)">
        <g id="Groupe_34" data-name="Groupe 34" style="isolation: isolate">
          <g id="Groupe_22" data-name="Groupe 22" transform="translate(54.214)">
            <path id="Tracé_234" data-name="Tracé 234" d="M1460.881,832.453,1401.9,798.177a3.583,3.583,0,0,0,3.631-.09c.132-.067.263-.138.391-.212,5.969-3.446,8.244-14.469,10.9-27.214,3.507-16.8,7.471-35.841,21.251-43.8l58.981,34.276c-13.78,7.956-17.744,27-21.251,43.8-2.654,12.745-4.929,23.768-10.9,27.214-.129.074-.259.145-.391.212A3.582,3.582,0,0,1,1460.881,832.453Z" transform="translate(-1401.9 -726.864)" fill="#fff"/>
          </g>
          <rect id="Rectangle_3" data-name="Rectangle 3" width="0.625" height="8.634" transform="translate(125.124 38.682) rotate(-59.838)" fill="#d1d3d4"/>
          <path id="Tracé_238" data-name="Tracé 238" d="M1545.985,799.335l-26.314-15.085.31-.542,26.314,15.085Z" transform="translate(-1434.297 -768.667)" fill="#d1d3d4"/>
          <rect id="Rectangle_4" data-name="Rectangle 4" width="0.625" height="6.831" transform="translate(124.289 44.168) rotate(-59.84)" fill="#d1d3d4"/>
          <rect id="Rectangle_5" data-name="Rectangle 5" width="0.624" height="28.857" transform="matrix(0.499, -0.867, 0.867, 0.499, 82.979, 20.161)" fill="#d1d3d4"/>
          <rect id="Rectangle_6" data-name="Rectangle 6" width="0.625" height="6.902" transform="matrix(0.502, -0.865, 0.865, 0.502, 122.354, 49.005)" fill="#d1d3d4"/>
          <rect id="Rectangle_7" data-name="Rectangle 7" width="0.625" height="33.686" transform="translate(81.104 25.033) rotate(-59.857)" fill="#d1d3d4"/>
          <rect id="Rectangle_8" data-name="Rectangle 8" width="0.625" height="6.941" transform="matrix(0.502, -0.865, 0.865, 0.502, 119.201, 58.498)" fill="#d1d3d4"/>
          <rect id="Rectangle_9" data-name="Rectangle 9" width="0.625" height="29.225" transform="translate(77.986 34.546) rotate(-59.935)" fill="#d1d3d4"/>
          <rect id="Rectangle_10" data-name="Rectangle 10" width="0.624" height="7.004" transform="translate(117.644 63.489) rotate(-59.829)" fill="#d1d3d4"/>
          <rect id="Rectangle_11" data-name="Rectangle 11" width="0.625" height="35.225" transform="translate(76.484 39.571) rotate(-60.211)" fill="#d1d3d4"/>
          <rect id="Rectangle_12" data-name="Rectangle 12" width="0.625" height="6.642" transform="translate(117.641 68.488) rotate(-59.839)" fill="#d1d3d4"/>
          <rect id="Rectangle_13" data-name="Rectangle 13" width="0.624" height="28.042" transform="matrix(0.503, -0.864, 0.864, 0.503, 76.167, 44.385)" fill="#d1d3d4"/>
          <rect id="Rectangle_14" data-name="Rectangle 14" width="0.624" height="7.241" transform="translate(116.091 72.987) rotate(-59.833)" fill="#d1d3d4"/>
          <rect id="Rectangle_15" data-name="Rectangle 15" width="0.625" height="37.11" transform="translate(75.136 49.188) rotate(-60.216)" fill="#d1d3d4"/>
          <rect id="Rectangle_16" data-name="Rectangle 16" width="0.625" height="5.084" transform="translate(114.807 84.152) rotate(-59.836)" fill="#d1d3d4"/>
          <rect id="Rectangle_17" data-name="Rectangle 17" width="0.625" height="33.417" transform="matrix(0.493, -0.87, 0.87, 0.493, 71.989, 59.269)" fill="#d1d3d4"/>
          <rect id="Rectangle_18" data-name="Rectangle 18" width="0.624" height="5.902" transform="matrix(0.503, -0.865, 0.865, 0.503, 112.539, 89.09)" fill="#d1d3d4"/>
          <rect id="Rectangle_19" data-name="Rectangle 19" width="0.624" height="38.86" transform="matrix(0.503, -0.864, 0.864, 0.503, 70.425, 64.616)" fill="#d1d3d4"/>
          <g id="Groupe_26" data-name="Groupe 26" transform="translate(0 130.962)">
            <path id="Tracé_246" data-name="Tracé 246" d="M1255.975,1257.153l-58.981-34.276,0-1.026,58.981,34.276Z" transform="translate(-1196.991 -1221.851)" fill="#e3ebf7"/>
          </g>
          <g id="Groupe_27" data-name="Groupe 27" transform="translate(42.177 52.627)">
            <path id="Tracé_247" data-name="Tracé 247" d="M1426.8,979.839l-58.981-34.276c-2.326-1.352-3.775-5.244-5.278-9.285-1.633-4.379-3.3-8.853-6.14-10.5l58.981,34.276c2.841,1.651,4.507,6.125,6.14,10.5C1423.027,974.6,1424.477,978.488,1426.8,979.839Z" transform="translate(-1356.403 -925.774)" fill="#e6e7e8"/>
          </g>
          <g id="Groupe_28" data-name="Groupe 28" transform="translate(0 50.832)">
            <path id="Tracé_248" data-name="Tracé 248" d="M1239.761,919.716l58.981,34.276c-1.807-1.05-4.072-1.066-7.041.648-8.341,4.816-11.528,19.248-14.895,34.52-4,18.142-8.139,36.906-20.834,44.236l-58.981-34.276c12.7-7.33,16.836-26.094,20.834-44.236,3.368-15.272,6.554-29.7,14.9-34.519C1235.689,918.651,1237.954,918.666,1239.761,919.716Z" transform="translate(-1196.991 -918.99)" fill="#fafafa"/>
          </g>
          <g id="Groupe_32" data-name="Groupe 32" transform="translate(27.154 61.975)">
            <rect id="Rectangle_20" data-name="Rectangle 20" width="0.625" height="8.633" transform="matrix(0.502, -0.865, 0.865, 0.502, 49.988, 23.641)" fill="#d1d3d4"/>
            <rect id="Rectangle_21" data-name="Rectangle 21" width="0.624" height="40.976" transform="translate(10.236 0.539) rotate(-59.834)" fill="#d1d3d4"/>
            <rect id="Rectangle_22" data-name="Rectangle 22" width="0.625" height="6.831" transform="translate(49.153 29.126) rotate(-59.838)" fill="#d1d3d4"/>
            <rect id="Rectangle_23" data-name="Rectangle 23" width="0.624" height="39.275" transform="translate(7.843 5.12) rotate(-60.043)" fill="#d1d3d4"/>
            <rect id="Rectangle_24" data-name="Rectangle 24" width="0.624" height="6.902" transform="translate(47.218 33.963) rotate(-59.841)" fill="#d1d3d4"/>
            <rect id="Rectangle_25" data-name="Rectangle 25" width="0.624" height="39.479" transform="matrix(0.509, -0.861, 0.861, 0.509, 5.966, 9.99)" fill="#d1d3d4"/>
            <rect id="Rectangle_26" data-name="Rectangle 26" width="0.625" height="6.941" transform="translate(44.066 43.457) rotate(-59.839)" fill="#d1d3d4"/>
            <rect id="Rectangle_27" data-name="Rectangle 27" width="0.625" height="39.838" transform="matrix(0.498, -0.867, 0.867, 0.498, 2.851, 19.506)" fill="#d1d3d4"/>
            <rect id="Rectangle_28" data-name="Rectangle 28" width="0.625" height="7.004" transform="matrix(0.502, -0.865, 0.865, 0.502, 42.508, 48.449)" fill="#d1d3d4"/>
            <path id="Tracé_255" data-name="Tracé 255" d="M1340.778,1072.771l-36.056-20.458.308-.542,36.056,20.458Z" transform="translate(-1303.372 -1027.783)" fill="#d1d3d4"/>
            <rect id="Rectangle_29" data-name="Rectangle 29" width="0.625" height="6.642" transform="matrix(0.502, -0.865, 0.865, 0.502, 42.505, 53.447)" fill="#d1d3d4"/>
            <rect id="Rectangle_30" data-name="Rectangle 30" width="0.625" height="37.134" transform="translate(1.032 29.344) rotate(-59.967)" fill="#d1d3d4"/>
            <rect id="Rectangle_31" data-name="Rectangle 31" width="0.625" height="7.241" transform="translate(40.954 57.947) rotate(-59.841)" fill="#d1d3d4"/>
            <rect id="Rectangle_32" data-name="Rectangle 32" width="0.625" height="37.11" transform="translate(0 34.147) rotate(-60.216)" fill="#d1d3d4"/>
          </g>
          <g id="Groupe_33" data-name="Groupe 33" transform="translate(58.981 34.276)">
            <path id="Tracé_259" data-name="Tracé 259" d="M1510.3,856.413l0,1.017c-13.1,7.565-16.979,26.159-20.392,42.557-2.748,13.188-5.15,24.643-11.727,28.44-.156.09-.315.177-.477.258-5.1,2.6-7.229-3.1-9.475-9.142-2.592-6.948-5.264-14.133-12.585-9.907-7.679,4.434-10.771,18.453-14.044,33.294-3.9,17.7-8.328,37.758-21.686,45.47l0-1.026c12.7-7.33,16.836-26.094,20.834-44.236,3.367-15.272,6.553-29.7,14.895-34.52,7.951-4.59,10.857,3.222,13.424,10.1,2.141,5.776,4.17,11.214,8.692,8.915q.2-.1.391-.212c5.969-3.446,8.244-14.469,10.9-27.214C1492.557,883.408,1496.521,864.369,1510.3,856.413Z" transform="translate(-1419.916 -856.413)" fill="#f1f2f2"/>
          </g>
        </g>
      </g>
    </g>
    <g id="Calque_2" data-name="Calque 2" transform="translate(1072.245 5607.726) rotate(-30)">
      <g id="Calque_1" data-name="Calque 1" transform="translate(0 0)">
        <path id="Tracé_1" data-name="Tracé 1" d="M7.275,8.378a.175.175,0,0,0-.021-.02c0-.006-.031,0-.039.027-.013.051-.021.09-.026.121a.527.527,0,0,0-.008.069v.01l-.011.025-.1.24-.206.48q-.411.956-.823,1.89l-.411.927-.1.229-.051.115c-.02.041-.025.062-.073.149a1.914,1.914,0,0,1-.282.394,1.824,1.824,0,0,1-.367.307,1.9,1.9,0,0,1-.892.294,1.963,1.963,0,0,1-.911-.155,1.883,1.883,0,0,1-1.055-1.165c-.013-.036-.022-.074-.032-.112l-.014-.056-.01-.047q-.192-.922-.368-1.8C1.236,9.122,1.025,8.009.842,6.98.105,2.862-.2.076.137,0S1.372,2.577,2.443,6.6c.267,1.005.549,2.1.828,3.253.141.577.283,1.172.427,1.78v.011h.01s0,0,0-.005c.06-.137.12-.27.18-.405q.2-.444.4-.892.406-.9.828-1.813l.212-.457.107-.229.2-.435q.206-.456.418-.913l.206-.453.114-.226.055-.1.028-.049a.313.313,0,0,1,.029-.04l.059-.073.029-.037a.193.193,0,0,1,.029-.029l.113-.106.109-.069a.541.541,0,0,1,.053-.033l.049-.023.1-.046c.029-.011.056-.019.084-.027L7.2,5.155c.026-.006.047-.012.078-.018a.95.95,0,0,1,.3,0,.823.823,0,0,1,.154.039c.021.008.039.016.055.023a.254.254,0,0,1,.037.021l.034.021.037.026.074.054c.012.01.024.016.038.028l.041.038.082.076a1.59,1.59,0,0,1,.2.262,1.407,1.407,0,0,1,.165.405q.154.7.3,1.387l.145.665c.024.121.049.241.073.36q.069.355.137.7l.069.343.017.085a.061.061,0,0,1,0,.019V9.7l0,.041.019.182a.248.248,0,0,0,.024.1.178.178,0,0,0,.069.069.153.153,0,0,0,.172-.005,1.459,1.459,0,0,0,.117-.141L9.7,9.876l.026-.035.014-.017.007-.009.01-.015.281-.427.549-.836q.541-.823,1.058-1.608l1.021-1.553.126-.192L12.915,5l.244-.388c.166-.262.339-.529.54-.787a3.917,3.917,0,0,1,.713-.717c.069-.055.144-.1.216-.148a2.535,2.535,0,0,1,.232-.128,1.791,1.791,0,0,1,.246-.1,2.46,2.46,0,0,1,.251-.076,2.549,2.549,0,0,1,1.056-.043,2.874,2.874,0,0,1,.983.375,4.162,4.162,0,0,1,.816.643,6.777,6.777,0,0,1,.677.8A12.157,12.157,0,0,1,19.983,6.3l.009.02L20,6.343a3.4,3.4,0,0,0,.676.987,3.287,3.287,0,0,0,1.1.751,3.616,3.616,0,0,0,.686.206,4.31,4.31,0,0,0,.747.063,5.675,5.675,0,0,0,1.565-.262,5.781,5.781,0,0,1-1.563.322,4.48,4.48,0,0,1-.764-.034,3.751,3.751,0,0,1-.717-.181,3.485,3.485,0,0,1-1.18-.728A3.69,3.69,0,0,1,19.77,6.45l-.007-.015-.008-.014A11.412,11.412,0,0,0,18.6,4.651a6.179,6.179,0,0,0-.678-.715,4.483,4.483,0,0,0-.369-.295,3.429,3.429,0,0,0-.392-.238,2.346,2.346,0,0,0-.823-.258,1.951,1.951,0,0,0-.812.088A2.354,2.354,0,0,0,14.3,4.254c-.158.236-.3.493-.442.758l-.215.405-.113.206-.111.2-.9,1.625c-.3.549-.617,1.109-.933,1.684l-.485.874-.248.447-.429.747-.069.106a.721.721,0,0,1-.072.1,1.688,1.688,0,0,1-.151.169,1.545,1.545,0,0,1-.31.247,1.166,1.166,0,0,1-.857.107,1.182,1.182,0,0,1-.564-.325,1.667,1.667,0,0,1-.128-.155l-.061-.094-.031-.047-.015-.024-.014-.028-.056-.115a.514.514,0,0,1-.027-.059l-.023-.069c-.014-.045-.03-.088-.043-.137l-.037-.143-.075-.285-.075-.294-.036-.137L7.75,9.936,7.658,9.6q-.093-.343-.188-.689c-.032-.116-.064-.233-.1-.35L7.349,8.5c-.016-.034-.032-.062-.045-.085a.379.379,0,0,0-.028-.041Z" fill="#3500e6" fill-rule="evenodd"/>
      </g>
    </g>
    <g id="Calque_2-2" data-name="Calque 2" transform="matrix(0.966, 0.259, -0.259, 0.966, 984.979, 5440.55)" opacity="0.514">
      <g id="Calque_1-2" data-name="Calque 1" transform="matrix(0.998, -0.07, 0.07, 0.998, -2.013, 3.155)">
        <path id="Tracé_1-2" data-name="Tracé 1" d="M25.942,37.34a.708.708,0,0,0-.076-.089c0-.028-.11,0-.139.122-.046.226-.073.4-.093.538a2.912,2.912,0,0,0-.029.306v.043l-.039.113-.367,1.07-.734,2.14Q23,45.844,21.53,50.008l-1.467,4.13L19.7,55.158l-.181.51c-.071.183-.09.275-.259.663a8.766,8.766,0,0,1-1.005,1.755,7.106,7.106,0,0,1-1.308,1.366,5.919,5.919,0,0,1-3.179,1.311,5.775,5.775,0,0,1-3.248-.691,7.158,7.158,0,0,1-2.6-2.476A9.236,9.236,0,0,1,6.752,54.88c-.046-.162-.078-.33-.112-.5l-.049-.251-.037-.208q-.685-4.108-1.313-8.036C4.407,40.657,3.656,35.7,3,31.11.375,12.757-.716.34.489.007s4.4,11.478,8.222,29.4c.954,4.481,1.956,9.345,2.952,14.5.5,2.574,1.01,5.224,1.521,7.933v.049H13.2a.026.026,0,0,0,.022,0s.015-.018.015-.024c.215-.611.428-1.2.643-1.807q.712-1.981,1.433-3.974Q16.759,42.072,18.266,38l.756-2.036.381-1.021L20.112,33q.734-2.033,1.492-4.069l.734-2.021.406-1.009.2-.44.1-.217a1.432,1.432,0,0,1,.1-.177l.21-.327.105-.165a.794.794,0,0,1,.105-.128l.4-.471.389-.306a1.915,1.915,0,0,1,.191-.147l.174-.1.35-.2c.1-.049.2-.083.3-.122l.3-.122c.093-.028.169-.055.279-.079a2.719,2.719,0,0,1,1.083,0,2.472,2.472,0,0,1,.548.174c.076.034.139.07.2.1a.881.881,0,0,1,.132.095l.122.095.132.116.264.241c.044.043.086.073.135.125l.147.171.293.339a7.065,7.065,0,0,1,1.3,2.974q.55,3.136,1.081,6.184l.518,2.965c.086.538.174,1.073.259,1.6q.245,1.583.489,3.124l.245,1.528.061.379a.34.34,0,0,1,0,.086v.046l.015.183.066.81a1.335,1.335,0,0,0,.086.431.736.736,0,0,0,.245.306.458.458,0,0,0,.614-.024,6.406,6.406,0,0,0,.416-.627l.186-.306.093-.156.049-.076.024-.04.037-.067,1-1.9,1.956-3.726q1.929-3.668,3.771-7.168l3.641-6.924.448-.856.457-.822.871-1.73c.592-1.168,1.208-2.357,1.927-3.509a16.233,16.233,0,0,1,2.541-3.2c.245-.245.514-.443.77-.66a8.69,8.69,0,0,1,.829-.569,5.758,5.758,0,0,1,.878-.455,7.524,7.524,0,0,1,.9-.339,7.324,7.324,0,0,1,3.766-.193,9.12,9.12,0,0,1,3.5,1.672,15.913,15.913,0,0,1,2.91,2.867,29.574,29.574,0,0,1,2.414,3.567,58.653,58.653,0,0,1,3.9,8.367l.032.089.029.086a15.748,15.748,0,0,0,2.411,4.4,12.017,12.017,0,0,0,3.913,3.347,11.054,11.054,0,0,0,2.445.917,12.382,12.382,0,0,0,2.663.281,16.6,16.6,0,0,0,5.581-1.168,17.1,17.1,0,0,1-5.573,1.434,12.815,12.815,0,0,1-2.724-.15,11.259,11.259,0,0,1-2.558-.807,12.355,12.355,0,0,1-4.209-3.243A16.588,16.588,0,0,1,70.5,28.75l-.024-.067-.027-.064a53.565,53.565,0,0,0-4.123-7.887A26,26,0,0,0,63.9,17.547a17.214,17.214,0,0,0-1.316-1.314,12.092,12.092,0,0,0-1.4-1.061,7.226,7.226,0,0,0-2.935-1.149,5.654,5.654,0,0,0-2.9.391c-1.876.718-3.25,2.445-4.382,4.549-.565,1.052-1.069,2.2-1.575,3.378l-.765,1.807-.4.917-.4.9-3.216,7.245q-1.629,3.668-3.328,7.5l-1.729,3.9L38.68,46.6l-1.531,3.329L36.9,50.4a3.3,3.3,0,0,1-.257.446,7.238,7.238,0,0,1-.538.752A5.927,5.927,0,0,1,35,52.7a3.433,3.433,0,0,1-3.054.477,4.119,4.119,0,0,1-2.013-1.449,7.337,7.337,0,0,1-.455-.691l-.218-.419-.11-.208L29.1,50.3l-.049-.125-.2-.51a2.6,2.6,0,0,1-.1-.263l-.081-.306c-.051-.2-.108-.394-.154-.611l-.132-.639-.269-1.269-.269-1.308-.127-.611-.093-.373-.328-1.507q-.33-1.528-.67-3.072c-.112-.517-.227-1.039-.34-1.562L26.2,37.9c-.059-.153-.112-.278-.161-.379a1.76,1.76,0,0,0-.1-.183Z" transform="translate(0 0)" fill="#fff" fill-rule="evenodd"/>
      </g>
    </g>
  </g>
</svg>
